<svg width="33" height="33" viewBox="0 0 33 33" fill="none" xmlns="http://www.w3.org/2000/svg">
<path d="M19.812 32.7011L13.739 32.7011C13.3585 32.7011 12.9894 32.575 12.6929 32.3436C12.3965 32.1122 12.1904 31.7894 12.109 31.4288L11.43 28.3791C10.5241 27.994 9.66519 27.5125 8.86898 26.9433L5.80415 27.8903C5.44138 28.0025 5.04995 27.991 4.69487 27.8576C4.33979 27.7242 4.04241 27.477 3.85213 27.157L0.808988 22.0564C0.620702 21.7362 0.550024 21.3633 0.608518 20.999C0.667011 20.6347 0.851213 20.3004 1.13099 20.0509L3.50844 17.9465C3.40033 16.9933 3.40033 16.0314 3.50844 15.0782L1.13099 12.9787C0.850816 12.7291 0.666364 12.3945 0.607861 12.0298C0.549358 11.6651 0.620275 11.292 0.808988 10.9715L3.84546 5.86774C4.03574 5.54775 4.33311 5.30053 4.6882 5.16714C5.04328 5.03376 5.4347 5.02223 5.79747 5.13447L8.86231 6.08141C9.26939 5.79004 9.69317 5.5181 10.1303 5.27206C10.5524 5.0422 10.9862 4.83339 11.43 4.64724L12.1107 1.60083C12.1917 1.24018 12.3973 0.917227 12.6935 0.685527C12.9897 0.453827 13.3586 0.327293 13.739 0.326904L19.812 0.326904C20.1924 0.327293 20.5613 0.453827 20.8575 0.685527C21.1536 0.917227 21.3593 1.24018 21.4403 1.60083L22.1277 4.64885C22.5948 4.84957 23.052 5.07457 23.4941 5.32547C23.9062 5.55695 24.3049 5.81109 24.6887 6.08465L27.7552 5.1377C28.1177 5.02588 28.5088 5.03762 28.8635 5.17099C29.2182 5.30435 29.5153 5.55133 29.7055 5.87098L32.742 10.9748C33.129 11.6336 32.9956 12.4672 32.42 12.9803L30.0425 15.0847C30.1506 16.0379 30.1506 16.9998 30.0425 17.953L32.42 20.0573C32.9956 20.5721 33.129 21.4041 32.742 22.0629L29.7055 27.1667C29.5152 27.4867 29.2179 27.7339 28.8628 27.8673C28.5077 28.0007 28.1163 28.0122 27.7535 27.9L24.6887 26.953C23.8931 27.5218 23.0347 28.0028 22.1293 28.3872L21.4403 31.4288C21.3589 31.7891 21.1531 32.1117 20.857 32.3431C20.5609 32.5745 20.1922 32.7008 19.812 32.7011ZM16.7688 10.0392C14.9989 10.0392 13.3014 10.7213 12.0499 11.9356C10.7984 13.1499 10.0952 14.7968 10.0952 16.514C10.0952 18.2312 10.7984 19.8781 12.0499 21.0924C13.3014 22.3066 14.9989 22.9888 16.7688 22.9888C18.5387 22.9888 20.2362 22.3066 21.4877 21.0924C22.7393 19.8781 23.4424 18.2312 23.4424 16.514C23.4424 14.7968 22.7393 13.1499 21.4877 11.9356C20.2362 10.7213 18.5387 10.0392 16.7688 10.0392Z" fill="#4F4F4F"/>
</svg>
