<svg width="33" height="33" viewBox="0 0 33 33" fill="none" xmlns="http://www.w3.org/2000/svg">
<path d="M30.2642 0.327148H3.28574C2.57022 0.327148 1.88402 0.540326 1.37807 0.919784C0.872127 1.29924 0.587891 1.8139 0.587891 2.35053V30.6779C0.587891 31.2146 0.872127 31.7292 1.37807 32.1087C1.88402 32.4881 2.57022 32.7013 3.28574 32.7013H30.2642C30.9797 32.7013 31.6659 32.4881 32.1719 32.1087C32.6778 31.7292 32.9621 31.2146 32.9621 30.6779V2.35053C32.9621 1.8139 32.6778 1.29924 32.1719 0.919784C31.6659 0.540326 30.9797 0.327148 30.2642 0.327148ZM10.0304 24.6078H7.33251V22.5844H10.0304V24.6078ZM10.0304 20.561H7.33251V18.5376H10.0304V20.561ZM10.0304 16.5142H7.33251V14.4908H10.0304V16.5142ZM10.0304 12.4675H7.33251V10.4441H10.0304V12.4675ZM10.0304 8.42069H7.33251V6.3973H10.0304V8.42069ZM26.2174 24.6078H12.7282V22.5844H26.2174V24.6078ZM26.2174 20.561H12.7282V18.5376H26.2174V20.561ZM26.2174 16.5142H12.7282V14.4908H26.2174V16.5142ZM26.2174 12.4675H12.7282V10.4441H26.2174V12.4675ZM26.2174 8.42069H12.7282V6.3973H26.2174V8.42069Z" fill="#4F4F4F"/>
</svg>
