<svg width="33" height="33" viewBox="0 0 33 33" fill="none" xmlns="http://www.w3.org/2000/svg">
<path d="M29.7246 0.327148L3.82531 0.327148C2.96669 0.327148 2.14324 0.753503 1.53611 1.51242C0.928974 2.27134 0.587891 3.30065 0.587891 4.37392L0.587891 28.6545C0.587891 29.7278 0.928974 30.7571 1.53611 31.516C2.14324 32.275 2.96669 32.7013 3.82531 32.7013L29.7246 32.7013C30.5833 32.7013 31.4067 32.275 32.0138 31.516C32.621 30.7571 32.9621 29.7278 32.9621 28.6545L32.9621 4.37392C32.9621 3.30065 32.621 2.27134 32.0138 1.51242C31.4067 0.753503 30.5833 0.327148 29.7246 0.327148ZM29.7246 14.4908L3.82531 14.4908L3.82531 8.42069L29.7246 8.42069L29.7246 14.4908Z" fill="#4F4F4F"/>
</svg>
