<svg width="40" height="40" viewBox="0 0 40 40" fill="none" xmlns="http://www.w3.org/2000/svg">
<path d="M35 12L30 12L30 4L35 4L35 12ZM27.5 12L22.5 12L22.5 4L27.5 4L27.5 12ZM20 12L15 12L15 4L20 4L20 12ZM35 -1.15404e-08L15 -4.94591e-09L3.95672e-09 12L1.18702e-08 36C1.222e-08 37.0609 0.526784 38.0783 1.46447 38.8284C2.40215 39.5786 3.67392 40 5 40L35 40C36.3261 40 37.5979 39.5786 38.5355 38.8284C39.4732 38.0783 40 37.0609 40 36L40 4C40 2.93913 39.4732 1.92172 38.5355 1.17157C37.5979 0.421427 36.3261 -1.19777e-08 35 -1.15404e-08Z" fill="#333333"/>
</svg>
