<svg width="40" height="40" viewBox="0 0 40 40" fill="none" xmlns="http://www.w3.org/2000/svg">
<path d="M20 0C31.0457 0 40 8.9543 40 20C40 31.0457 31.0457 40 20 40C8.9543 40 0 31.0457 0 20C0 8.9543 8.9543 0 20 0ZM20 4C11.1634 4 4 11.1634 4 20C4 28.8366 11.1634 36 20 36C28.8366 36 36 28.8366 36 20C36 11.1634 28.8366 4 20 4ZM20 16C21.0257 16 21.871 16.4504 21.9865 17.0306L22 17.1667V28.8333C22 29.4777 21.1046 30 20 30C18.9743 30 18.129 29.5496 18.0135 28.9694L18 28.8333V17.1667C18 16.5223 18.8954 16 20 16ZM20 10C21.1046 10 22 10.8954 22 12C22 13.1046 21.1046 14 20 14C18.8954 14 18 13.1046 18 12C18 10.8954 18.8954 10 20 10Z" fill="black"/>
</svg>
