<svg width="23" height="20" viewBox="0 0 23 20" fill="none" xmlns="http://www.w3.org/2000/svg">
<path d="M20.1355 10L21.2899 12.1616C21.6821 13.361 22 15.3464 22 16.6055V17.7278C22 18.9827 20.9005 20 19.5293 20H3.47072C2.10618 20 1 18.9869 1 17.7278V16.6055C1 15.3506 1.31596 13.3671 1.71015 12.1616L2.86445 10H1.0941C0.489843 10 0 9.4337 0 8.75371V5C0 2.23858 1.96097 0 4.38026 0H18.6197C21.0389 0 23 2.2442 23 5V8.75371C23 9.44202 22.5152 10 21.9059 10H20.1355ZM19.0675 8H21V5C21 3.29199 19.869 2 18.6197 2H4.38026C3.1288 2 2 3.28854 2 5V8H3.93248L4.90878 6.17177C5.30098 4.97234 6.73091 4 8.07965 4H14.9203C16.2794 4 17.697 4.96627 18.0912 6.17177L19.0675 8ZM3 16.6055V17.7278C3 17.8411 3.17298 18 3.47072 18H19.5293C19.8285 18 20 17.842 20 17.7278V16.6055C20 15.6117 19.7437 13.9594 19.4376 12.9388L16.2446 6.9596L16.1903 6.79336C16.0728 6.43414 15.438 6 14.9203 6H8.07965C7.57085 6 6.92478 6.44151 6.80973 6.79336L6.75537 6.9596L3.56238 12.9388C3.25561 13.9612 3 15.6119 3 16.6055ZM11.5 16C9.567 16 8 14.433 8 12.5C8 10.567 9.567 9 11.5 9C13.433 9 15 10.567 15 12.5C15 14.433 13.433 16 11.5 16ZM11.5 14C12.3284 14 13 13.3284 13 12.5C13 11.6716 12.3284 11 11.5 11C10.6716 11 10 11.6716 10 12.5C10 13.3284 10.6716 14 11.5 14Z" fill="black"/>
</svg>
