<svg width="46" height="42" viewBox="0 0 46 42" fill="none" xmlns="http://www.w3.org/2000/svg">
<path d="M42.8551 0.364258H2.72242C1.34817 0.364258 0.232422 1.37862 0.232422 2.63254V39.1917C0.232422 40.4456 1.34817 41.4613 2.72242 41.4613H24.3287V25.5461H18.4498V19.3429H24.3287V14.7684C24.3287 9.46108 27.8861 6.56955 33.0845 6.56955C35.5767 6.56955 37.7139 6.73941 38.3371 6.81317V12.3607L34.7314 12.3621C31.9049 12.3621 31.3596 13.5862 31.3596 15.3815V19.3408H38.1031L37.2214 25.5434H31.3589V41.4593H42.8543C44.2301 41.4593 45.3466 40.4422 45.3466 39.1917V2.63119C45.3458 1.37862 44.2308 0.364258 42.8551 0.364258Z" fill="#F2F2F2"/>
</svg>
