<svg width="51" height="51" viewBox="0 0 51 51" fill="none" xmlns="http://www.w3.org/2000/svg">
<g clip-path="url(#clip0)">
<path d="M36.5068 0.797363H14.4092C6.90499 0.797363 0.799805 6.90284 0.799805 14.4071V36.5047C0.799805 44.0092 6.90499 50.1144 14.4092 50.1144H36.5068C44.0116 50.1144 50.1168 44.0089 50.1168 36.5047V14.4071C50.1171 6.90284 44.0116 0.797363 36.5068 0.797363ZM45.7415 36.5047C45.7415 41.5964 41.5989 45.7387 36.5071 45.7387H14.4092C9.31772 45.739 5.17545 41.5964 5.17545 36.5047V14.4071C5.17545 9.31557 9.31772 5.17301 14.4092 5.17301H36.5068C41.5986 5.17301 45.7412 9.31557 45.7412 14.4071V36.5047H45.7415Z" fill="#F2F2F2"/>
<path d="M25.4577 12.748C18.4506 12.748 12.75 18.4486 12.75 25.4558C12.75 32.4627 18.4506 38.1629 25.4577 38.1629C32.4649 38.1629 38.1655 32.4627 38.1655 25.4558C38.1655 18.4486 32.4649 12.748 25.4577 12.748ZM25.4577 33.787C20.8636 33.787 17.1256 30.0496 17.1256 25.4555C17.1256 20.8611 20.8633 17.1234 25.4577 17.1234C30.0522 17.1234 33.7898 20.8611 33.7898 25.4555C33.7898 30.0496 30.0519 33.787 25.4577 33.787Z" fill="#F2F2F2"/>
<path d="M38.699 9.03809C37.856 9.03809 37.0278 9.37939 36.4325 9.97739C35.8342 10.5725 35.4902 11.4009 35.4902 12.2469C35.4902 13.0902 35.8345 13.9184 36.4325 14.5164C37.0275 15.1115 37.856 15.4557 38.699 15.4557C39.545 15.4557 40.3705 15.1115 40.9685 14.5164C41.5665 13.9184 41.9078 13.0899 41.9078 12.2469C41.9078 11.4009 41.5665 10.5725 40.9685 9.97739C40.3734 9.37939 39.545 9.03809 38.699 9.03809Z" fill="#F2F2F2"/>
</g>
<defs>
<clipPath id="clip0">
<rect width="49.3173" height="49.3173" fill="white" transform="translate(0.799805 0.797363)"/>
</clipPath>
</defs>
</svg>
