<svg width="66" height="66" viewBox="0 0 66 66" fill="none" xmlns="http://www.w3.org/2000/svg">
<path d="M33 3.72852C49.14 3.72852 62.271 16.8595 62.271 32.9995C62.271 49.1395 49.14 62.2695 33 62.2695C16.86 62.2695 3.729 49.1395 3.729 32.9995C3.729 16.8595 16.86 3.72852 33 3.72852ZM33 0.728516C15.178 0.728516 0.729004 15.1775 0.729004 32.9995C0.729004 50.8215 15.178 65.2705 33 65.2705C50.822 65.2705 65.271 50.8235 65.271 33.0005C65.271 15.1775 50.822 0.728516 33 0.728516ZM40.207 32.9995L29.384 22.1785L28.323 23.2395L38.086 32.9995L28.324 42.7615L29.385 43.8225L40.207 32.9995Z" fill="#4F4F4F"/>
</svg>
