<svg width="10" height="8" viewBox="0 0 10 8" fill="none" xmlns="http://www.w3.org/2000/svg">
<path d="M9.32571 4.43796C9.39871 4.39996 9.42771 4.31096 9.38871 4.23796C9.35071 4.16596 9.26171 4.13696 9.18871 4.17496L7.56971 5.01896V4.72796L9.32571 3.81296C9.39871 3.77496 9.42771 3.68596 9.38871 3.61296C9.35171 3.54096 9.26271 3.51296 9.18871 3.55096L7.56971 4.39396V4.11896L9.32571 3.20396C9.37671 3.17896 9.40671 3.12696 9.40571 3.07096C9.40471 3.01496 9.37271 2.96396 9.32171 2.93896L6.60171 1.62596C6.56171 1.60596 6.51371 1.60696 6.47271 1.62596L0.678713 4.45796C0.627713 4.48196 0.595713 4.53396 0.595713 4.59096C0.595713 4.64796 0.628713 4.69796 0.678713 4.72396L3.57471 6.12996C3.59571 6.13996 3.61771 6.14596 3.63971 6.14596C3.66271 6.14596 3.68671 6.13996 3.70771 6.12796L5.57671 5.15496V5.43096L3.63771 6.44096L0.807713 5.06596C0.735713 5.02996 0.646713 5.06196 0.610713 5.13396C0.575713 5.20796 0.605713 5.29596 0.679713 5.33096L3.57571 6.73896C3.59671 6.74896 3.61871 6.75296 3.64071 6.75296C3.66371 6.75296 3.68771 6.74696 3.70871 6.73696L5.57771 5.76196V6.05296L3.63871 7.06296L0.808713 5.68996C0.735713 5.65296 0.646713 5.68496 0.610713 5.75896C0.575713 5.83096 0.605713 5.92096 0.679713 5.95596L3.57571 7.36196C3.59671 7.37196 3.61871 7.37796 3.64071 7.37796C3.66371 7.37796 3.68771 7.37196 3.70871 7.35996L5.57771 6.38696V6.65796L3.63871 7.66796L0.808713 6.29496C0.735713 6.26096 0.646713 6.28996 0.610713 6.36396C0.574713 6.43796 0.605713 6.52596 0.679713 6.56196L3.57571 7.96796C3.59671 7.97996 3.61871 7.98296 3.64071 7.98296C3.66371 7.98296 3.68771 7.97696 3.70871 7.96496L7.48971 5.99796L9.32571 5.04096C9.39871 5.00396 9.42771 4.91396 9.38871 4.84196C9.34971 4.76996 9.26171 4.73996 9.18871 4.77896L7.56971 5.62396V5.35096L9.32571 4.43796ZM6.53771 1.92296L8.92771 3.07796L7.40971 3.86796L4.99171 2.67896L6.53771 1.92296ZM3.63871 5.83096L1.08271 4.58896L2.91571 3.69396L5.39771 4.91496L3.63871 5.83096ZM5.87471 5.00096L6.82371 4.50696C6.89571 4.46996 6.92371 4.38096 6.88671 4.30796C6.84871 4.23496 6.75971 4.20696 6.68771 4.24496L5.72471 4.74496L3.25271 3.52896L4.65571 2.84296L7.27271 4.13096V5.77596L5.87471 6.50496V5.00096Z" fill="black"/>
<path d="M3.24248 1.99953C4.43748 1.99953 5.33948 1.57353 5.33948 1.00953C5.33948 0.445531 4.43848 0.0195312 3.24248 0.0195312C2.04748 0.0195312 1.14648 0.445531 1.14648 1.00953C1.14648 1.57353 2.04748 1.99953 3.24248 1.99953ZM3.24248 0.314531C4.30348 0.314531 5.04248 0.680531 5.04248 1.00853C5.04248 1.33653 4.30348 1.70253 3.24248 1.70253C2.18148 1.70253 1.44248 1.33653 1.44248 1.00853C1.44248 0.680531 2.18248 0.314531 3.24248 0.314531Z" fill="black"/>
<path d="M5.3043 1.87089C5.3383 1.79589 5.3043 1.70789 5.2303 1.67489C5.1553 1.64189 5.0683 1.67489 5.0343 1.74989C4.9323 1.97689 4.2193 2.22189 3.2443 2.22189C2.2703 2.22189 1.5563 1.97689 1.4533 1.74989C1.4193 1.67489 1.3313 1.64189 1.2573 1.67589C1.1823 1.70889 1.1493 1.79689 1.1833 1.87089C1.3843 2.31489 2.3923 2.51789 3.2443 2.51789C4.0963 2.51789 5.1053 2.31489 5.3043 1.87089Z" fill="black"/>
<path d="M3.3923 2.92893C3.3923 2.84693 3.3263 2.78093 3.2443 2.78093C2.2703 2.78093 1.5563 2.53593 1.4533 2.30793C1.4193 2.23393 1.3313 2.19993 1.2573 2.23393C1.1823 2.26793 1.1493 2.35493 1.1833 2.42993C1.3843 2.87393 2.3923 3.07693 3.2443 3.07693C3.3253 3.07693 3.3923 3.01093 3.3923 2.92893Z" fill="black"/>
<path d="M2.32347 3.49679C2.39547 3.49679 2.45847 3.44479 2.46947 3.37079C2.48147 3.28979 2.42647 3.21379 2.34547 3.20179C1.72347 3.10879 1.48647 2.95179 1.44847 2.88179C1.40847 2.80979 1.31947 2.78379 1.24747 2.82279C1.17547 2.86179 1.14847 2.95279 1.18847 3.02379C1.33847 3.29779 1.87647 3.43079 2.30147 3.49479C2.30847 3.49579 2.31547 3.49679 2.32347 3.49679Z" fill="black"/>
<path d="M1.43955 3.41569C1.39355 3.34769 1.30155 3.33169 1.23355 3.37769C1.16655 3.42369 1.14955 3.51669 1.19655 3.58369C1.27755 3.70169 1.46655 3.79569 1.77355 3.86969C1.78555 3.87269 1.79655 3.87369 1.80855 3.87369C1.87455 3.87369 1.93555 3.82869 1.95255 3.76069C1.97255 3.68169 1.92355 3.60169 1.84355 3.58169C1.50155 3.49869 1.44255 3.41869 1.43955 3.41569Z" fill="black"/>
<path d="M5.85044 3.55499C5.79616 3.42443 5.47682 3.43307 5.13718 3.57428C4.79753 3.71548 4.56619 3.93579 4.62047 4.06634C4.67475 4.1969 4.99409 4.18826 5.33373 4.04706C5.67338 3.90585 5.90472 3.68554 5.85044 3.55499Z" fill="black"/>
</svg>
