<svg width="154" height="129" viewBox="0 0 154 129" fill="none" xmlns="http://www.w3.org/2000/svg">
<path d="M135.459 61.3206L107.352 119.657L41.9792 125.28L23.3456 98.9228L4.71198 72.5661L32.818 14.2299L98.1913 8.60712L135.459 61.3206Z" fill="#333333"/>
<path d="M146.855 55.7465L119.505 112.512L55.8409 117.988L37.7016 92.3303L19.5771 66.6937L46.9265 9.92806L110.591 4.45227L146.855 55.7465Z" fill="white" stroke="#333333" stroke-width="3"/>
<path d="M49.5098 53.23C49.799 52.7822 50.1353 52.3573 50.5186 51.9555C50.9019 51.542 51.3325 51.1866 51.8105 50.8895C52.3001 50.5805 52.8313 50.3356 53.404 50.1547C53.9884 49.9738 54.6146 49.8804 55.2825 49.8746C56.1497 49.867 56.8778 50.0481 57.4669 50.418C58.0559 50.7761 58.5345 51.2524 58.9028 51.8468C59.6352 51.149 60.4684 50.585 61.4023 50.1549C62.3362 49.7248 63.2954 49.5055 64.2797 49.4968C64.9945 49.4906 65.6284 49.6139 66.1813 49.8669C66.7459 50.108 67.235 50.4436 67.6488 50.8736C68.0742 51.2918 68.4299 51.7808 68.7159 52.3409C69.0018 52.9009 69.2295 53.4907 69.3988 54.1103C69.5798 54.7299 69.7081 55.3616 69.7838 56.0055C69.8712 56.6375 69.9173 57.2465 69.9223 57.8324C69.9278 58.4887 69.8873 59.2508 69.8009 60.1188C69.726 60.9749 69.6103 61.849 69.4538 62.741C69.2972 63.6331 69.1052 64.4903 68.8777 65.3126C68.6619 66.1231 68.4157 66.805 68.1391 67.3582L63.3367 66.9609C63.7748 66.1015 64.1654 65.1723 64.5086 64.1731C64.8061 63.315 65.0732 62.3341 65.3101 61.2304C65.5468 60.115 65.6599 58.9363 65.6495 57.6941C65.643 56.9207 65.59 56.1946 65.4905 55.5158C65.3911 54.8369 65.2103 54.2525 64.9484 53.7626C64.6981 53.2609 64.349 52.8655 63.9013 52.5765C63.4652 52.2873 62.9015 52.1457 62.2102 52.1518C61.718 52.1561 61.2501 52.2657 60.8066 52.4805C60.3747 52.6836 59.9551 52.9509 59.5477 53.2826C59.7399 53.8435 59.8737 54.4282 59.9492 55.037C60.0362 55.6339 60.0822 56.2253 60.0872 56.8112C60.0922 57.4089 60.0691 58.1415 60.0178 59.0092C59.9665 59.8769 59.8919 60.7682 59.7941 61.6831C59.708 62.5863 59.6039 63.4485 59.4819 64.27C59.3716 65.0913 59.2541 65.7486 59.1293 66.2419L54.3277 65.9324C54.6369 65.0742 54.9103 64.1401 55.148 63.1302C55.3516 62.2612 55.5365 61.2517 55.7026 60.1018C55.8804 58.9517 55.9638 57.7205 55.9528 56.408C55.9493 55.9979 55.8929 55.5589 55.7835 55.0911C55.6857 54.6115 55.5179 54.1735 55.2802 53.7771C55.0541 53.3689 54.7524 53.0317 54.3752 52.7655C54.0097 52.4991 53.5632 52.3683 53.0359 52.3729C52.6961 52.3759 52.3688 52.4784 52.0541 52.6804C51.7393 52.8706 51.4367 53.1252 51.1464 53.4442C50.8561 53.7632 50.578 54.1348 50.312 54.559C50.0577 54.9714 49.8211 55.4071 49.6023 55.866L50.1322 66.6196L45.4429 67.1178L46.2161 50.376L49.3821 50.5943L49.5098 53.23ZM79.1548 45.7276C79.1583 46.1494 79.0796 46.5486 78.9187 46.925C78.7695 47.3013 78.5555 47.6313 78.2766 47.915C77.9978 48.1987 77.6715 48.4243 77.2979 48.5916C76.9243 48.759 76.5207 48.8445 76.0871 48.8483C75.6536 48.8521 75.2427 48.7737 74.8547 48.613C74.4783 48.4523 74.1483 48.2325 73.8647 47.9537C73.5811 47.675 73.3557 47.3488 73.1885 46.9753C73.0213 46.6017 72.9359 46.204 72.9323 45.7821C72.9287 45.3486 73.0073 44.9436 73.1682 44.5671C73.329 44.179 73.5489 43.8431 73.8277 43.5594C74.1066 43.2757 74.4328 43.0501 74.8065 42.8828C75.1918 42.7153 75.6012 42.6297 76.0348 42.6259C76.4684 42.6221 76.8734 42.7006 77.2497 42.8614C77.6261 43.0221 77.9561 43.2419 78.2397 43.5207C78.5233 43.7994 78.7429 44.1315 78.8985 44.5169C79.0657 44.8904 79.1511 45.294 79.1548 45.7276ZM78.5981 50.6018L77.4044 67.5231L74.009 67.2013L73.6566 50.3814L78.5981 50.6018ZM100.476 58.0743C100.488 59.4922 100.217 60.7544 99.6642 61.8608C99.1226 62.9555 98.3922 63.8877 97.4728 64.6575C96.5651 65.4155 95.5094 65.9931 94.3057 66.3904C93.102 66.7994 91.8498 67.0096 90.5491 67.021C89.2601 67.0323 88.0688 66.8201 86.9753 66.3844C85.8934 65.9485 84.9567 65.3415 84.1649 64.5633C83.3731 63.7733 82.75 62.8412 82.2956 61.767C81.8529 60.681 81.6261 59.4935 81.6153 58.2045C81.6046 56.9389 81.8525 55.7531 82.3588 54.6471C82.8769 53.5409 83.566 52.5739 84.4263 51.746C85.2981 50.9063 86.3004 50.2471 87.4332 49.7684C88.5658 49.278 89.7532 49.0273 90.9953 49.0164C92.3429 49.0046 93.5928 49.2163 94.745 49.6515C95.8971 50.0868 96.8926 50.705 97.7314 51.5063C98.5819 52.3074 99.2462 53.2685 99.7244 54.3893C100.214 55.4983 100.465 56.7266 100.476 58.0743ZM96.0452 57.9373C96.0407 57.41 96.001 56.8654 95.926 56.3035C95.8508 55.73 95.7289 55.1744 95.5604 54.6368C95.4034 54.0873 95.194 53.5735 94.9321 53.0953C94.6819 52.6053 94.3678 52.1803 93.9897 51.8204C93.6116 51.4487 93.1697 51.1596 92.664 50.953C92.1583 50.7348 91.5831 50.6285 90.9386 50.6342C89.9543 50.6428 89.1419 50.8902 88.5014 51.3763C87.8609 51.8507 87.3562 52.4586 86.9874 53.2002C86.6303 53.9299 86.3792 54.7349 86.2343 55.6151C86.101 56.4952 86.0378 57.3337 86.0445 58.1305C86.0489 58.6578 86.0829 59.2083 86.1463 59.782C86.2213 60.3439 86.3373 60.8995 86.4943 61.449C86.6513 61.9984 86.8549 62.524 87.1052 63.0257C87.3555 63.5157 87.6638 63.9525 88.0303 64.336C88.4085 64.7077 88.8446 65.0027 89.3386 65.221C89.8444 65.4393 90.4195 65.5456 91.064 65.5399C91.7202 65.5341 92.2994 65.4177 92.8014 65.1907C93.3033 64.9519 93.7343 64.6434 94.0944 64.2652C94.4662 63.8752 94.7788 63.4272 95.0324 62.921C95.2858 62.4031 95.4864 61.8682 95.6341 61.3161C95.7817 60.7522 95.8883 60.1829 95.9537 59.6081C96.0191 59.0216 96.0496 58.4647 96.0452 57.9373ZM117.132 54.9046C117.128 54.4593 116.99 54.0328 116.717 53.625C116.455 53.2054 116.118 52.8392 115.705 52.5264C115.293 52.2136 114.833 51.9657 114.328 51.7826C113.823 51.5995 113.335 51.5101 112.867 51.5142C111.906 51.5226 111.081 51.7408 110.394 52.1687C109.706 52.5966 109.142 53.1524 108.703 53.8359C108.275 54.5077 107.959 55.2663 107.755 56.1119C107.551 56.9458 107.452 57.7845 107.46 58.6283C107.466 59.39 107.549 60.1744 107.708 60.9816C107.879 61.7771 108.148 62.5071 108.517 63.1719C108.898 63.8366 109.395 64.383 110.008 64.8112C110.621 65.2278 111.384 65.432 112.298 65.424C113.013 65.4177 113.633 65.2541 114.157 64.9331C114.694 64.6119 115.147 64.2036 115.518 63.7082C115.901 63.2009 116.212 62.6356 116.453 62.0124C116.694 61.3775 116.876 60.7489 117 60.1267C117.028 59.2592 117.056 58.3859 117.083 57.5067C117.123 56.6157 117.139 55.7483 117.132 54.9046ZM121.166 41.3336L120.695 66.827L117.46 66.7499L117.293 63.6223C117.063 64.1868 116.757 64.6934 116.374 65.1421C116.003 65.579 115.566 65.9461 115.065 66.2435C114.575 66.5525 114.032 66.7858 113.436 66.9434C112.851 67.1008 112.237 67.1824 111.592 67.1881C110.338 67.1991 109.194 66.9981 108.159 66.5853C107.125 66.1725 106.235 65.5944 105.49 64.8509C104.758 64.1073 104.182 63.2158 103.763 62.1764C103.356 61.137 103.147 60.0021 103.136 58.7717C103.125 57.4358 103.332 56.2093 103.756 55.0923C104.192 53.9634 104.799 52.9971 105.577 52.1934C106.367 51.3778 107.317 50.7542 108.427 50.3226C109.536 49.8792 110.759 49.6693 112.096 49.6927C112.494 49.701 112.899 49.7384 113.309 49.8051C113.732 49.86 114.143 49.9502 114.542 50.0756C114.942 50.201 115.324 50.3617 115.689 50.5577C116.066 50.7537 116.407 50.9909 116.714 51.2695L116.26 41.1305L121.166 41.3336ZM74.7627 81.5702C73.837 81.5783 72.9161 81.4692 72.0001 81.2429C71.0957 81.0047 70.2722 80.6252 69.5295 80.1043C69.5451 80.5612 69.5783 81.0297 69.6292 81.5097C69.6802 81.9898 69.7603 82.4579 69.8696 82.9139C69.9905 83.3582 70.1405 83.7788 70.3197 84.1757C70.5105 84.5725 70.7478 84.9219 71.0316 85.2242C71.327 85.5145 71.6747 85.7459 72.0746 85.9182C72.4862 86.0903 72.9733 86.174 73.5358 86.169C74.0631 86.1644 74.5545 86.0663 75.0099 85.8748C75.4652 85.6716 75.8614 85.4045 76.1985 85.0734C76.5473 84.7422 76.8311 84.3529 77.05 83.9057C77.2689 83.4584 77.4172 82.9767 77.4949 82.4603L81.8271 83.3892C81.4934 84.1187 81.0181 84.7381 80.4013 85.2475C79.7962 85.7567 79.1199 86.1669 78.3725 86.4782C77.6252 86.8012 76.842 87.0365 76.0229 87.1844C75.2155 87.3321 74.4368 87.4092 73.6869 87.4158C72.3393 87.4276 71.1365 87.2389 70.0785 86.8498C69.0205 86.4606 68.1251 85.8942 67.3922 85.1506C66.6711 84.4069 66.1127 83.5036 65.717 82.4406C65.333 81.3658 65.1353 80.1604 65.1241 78.8245C65.1131 77.5238 65.3255 76.2973 65.7611 75.145C66.1966 73.981 66.8092 72.9677 67.5989 72.1053C68.3885 71.2429 69.3379 70.5607 70.447 70.0588C71.5677 69.545 72.8019 69.2822 74.1495 69.2704C75.1338 69.2618 76.1133 69.3762 77.088 69.6138C78.0626 69.8396 78.9388 70.207 79.7165 70.7158C80.4942 71.2129 81.1207 71.8578 81.5962 72.6506C82.0833 73.4432 82.3316 74.402 82.3411 75.5269C82.3503 76.6285 82.1355 77.562 81.6966 78.3276C81.2694 79.0814 80.7004 79.7016 79.9896 80.1884C79.2787 80.6634 78.4671 81.0103 77.5549 81.2293C76.6426 81.4482 75.7119 81.5619 74.7627 81.5702ZM73.9143 70.5733C73.3753 70.578 72.8958 70.6936 72.4758 70.9199C72.0674 71.1345 71.7008 71.4306 71.3758 71.8085C71.0626 72.1863 70.7967 72.6164 70.5781 73.0988C70.3594 73.5812 70.1762 74.0867 70.0283 74.6154C69.8804 75.144 69.7677 75.6782 69.6902 76.218C69.6127 76.7578 69.5642 77.2621 69.5447 77.731C69.9964 78.4888 70.5935 79.1106 71.3359 79.5963C72.0782 80.0702 72.9356 80.303 73.9082 80.2944C74.5293 80.289 75.0847 80.1435 75.5745 79.8579C76.0642 79.5607 76.4771 79.182 76.8131 78.722C77.1491 78.262 77.4026 77.75 77.5736 77.186C77.7564 76.6219 77.8454 76.0586 77.8407 75.4961C77.8359 74.9336 77.7491 74.3601 77.5801 73.7757C77.411 73.1795 77.1604 72.6484 76.8284 72.1826C76.5079 71.7049 76.1004 71.3159 75.6056 71.0155C75.1226 70.7151 74.5589 70.5677 73.9143 70.5733ZM90.7099 61.0565L89.7315 78.4857C90.5712 78.0095 91.3634 77.4401 92.1078 76.7773C92.8523 76.1145 93.5141 75.3879 94.0934 74.5977C94.6844 73.7956 95.1812 72.9474 95.5838 72.0532C95.9981 71.1472 96.2892 70.2247 96.457 69.2857L101.95 70.3274C101.117 71.577 100.096 72.7578 98.8863 73.8701C97.6769 74.9823 96.361 75.9782 94.9387 76.8579C95.7633 77.3663 96.5714 77.9979 97.3629 78.7527C98.1544 79.5076 98.8879 80.3273 99.5633 81.2121C100.25 82.0967 100.862 83.0113 101.397 83.9558C101.932 84.9004 102.362 85.8166 102.686 86.7044L97.3328 87.7182C97.3144 86.9215 97.196 86.0787 96.9776 85.19C96.7591 84.3012 96.4646 83.419 96.0939 82.5433C95.735 81.6675 95.3119 80.8275 94.8247 80.0231C94.3373 79.207 93.8156 78.485 93.2595 77.8571C92.6644 78.167 92.0692 78.4593 91.4738 78.7341C90.8901 78.997 90.3003 79.2307 89.7043 79.4352L89.3103 86.9272L86.289 87.1998L85.1946 61.5795L90.7099 61.0565Z" fill="#333333"/>
</svg>
