<svg width="176" height="96" viewBox="0 0 176 96" fill="none" xmlns="http://www.w3.org/2000/svg">
<circle cx="31.5" cy="50.5" r="28.5" fill="#EECF90" stroke="#4F4F4F" stroke-width="4"/>
<path d="M14.5425 62.9169C14.6687 61.753 14.8431 60.4402 15.0657 58.9786C15.3007 57.5168 15.5722 55.9867 15.8803 54.3882C16.2006 52.7773 16.5454 51.1413 16.9148 49.4805C17.2964 47.8071 17.6971 46.1831 18.1166 44.6084C18.5485 43.0212 18.9935 41.5205 19.4515 40.1062C19.9096 38.692 20.3751 37.4323 20.8482 36.3272L25.132 36.0298C25.5091 36.7439 25.912 37.5754 26.3407 38.5241C26.7817 39.4727 27.2357 40.4955 27.7027 41.5923C28.182 42.6767 28.6679 43.8167 29.1605 45.0122C29.6531 46.2078 30.1397 47.422 30.6202 48.6548C31.1006 49.8753 31.5686 51.0896 32.0242 52.2979C32.4798 53.5062 32.9103 54.6714 33.3157 55.7935C33.5521 54.5049 33.8368 53.0675 34.1697 51.4811C34.5025 49.8824 34.8781 48.2277 35.2966 46.5169C35.7273 44.7937 36.1949 43.0515 36.6995 41.2905C37.204 39.5171 37.7462 37.8114 38.326 36.1735L43.3705 35.8693C44.1294 37.8295 44.9467 40.1232 45.8226 42.7504C46.5716 45.0075 47.4237 47.7586 48.3791 51.0036C49.3468 54.2485 50.3494 57.9693 51.387 62.166L44.9416 63.5587C44.9248 63.0393 44.876 62.3841 44.795 61.5931C44.7264 60.7897 44.626 59.8999 44.494 58.9238C44.3744 57.9476 44.2295 56.9036 44.0592 55.7918C43.8889 54.6676 43.6997 53.5188 43.4918 52.3455C43.2963 51.172 43.076 49.9926 42.8309 48.8072C42.5981 47.6093 42.3471 46.4549 42.0779 45.344C41.8209 44.2205 41.5459 43.1591 41.2529 42.1597C40.9722 41.1478 40.6861 40.2349 40.3947 39.421C39.972 40.6247 39.5743 41.8652 39.2016 43.1426C38.8289 44.4076 38.4809 45.6725 38.1576 46.9371C37.8468 48.2016 37.5542 49.4412 37.28 50.6559C37.0182 51.8705 36.7805 53.0168 36.567 54.0949C36.069 56.6352 35.6386 59.1192 35.2757 61.547L30.8648 62.161C30.8649 62.1734 30.7571 61.8651 30.5415 61.2361C30.3381 60.5946 30.0463 59.7374 29.6661 58.6646C29.2858 57.5793 28.8359 56.3153 28.3165 54.8726C27.797 53.4298 27.2336 51.9071 26.6263 50.3043C26.0189 48.7015 25.374 47.0557 24.6917 45.367C24.0217 43.6782 23.3461 42.0512 22.6648 40.4862C22.1592 42.1235 21.7288 43.8901 21.3738 45.7858C21.0188 47.6816 20.72 49.6388 20.4774 51.6572C20.2471 53.6756 20.0603 55.7184 19.9171 57.7855C19.7737 59.8402 19.667 61.8389 19.5969 63.7817L14.5425 62.9169Z" fill="#333333"/>
<path d="M69.621 41.5625L69.054 62.7792L66.0956 62.8638L65.3167 41.864L69.621 41.5625ZM96.6344 52.004C96.644 53.127 96.5114 54.1926 96.2367 55.201C95.962 56.1995 95.5695 57.1258 95.0591 57.98C94.5488 58.8341 93.9352 59.6013 93.2182 60.2814C92.5013 60.9616 91.7054 61.5399 90.8305 62.0164C89.9557 62.4928 89.0164 62.8624 88.0127 63.1252C87.009 63.3879 85.9652 63.524 84.8813 63.5336C83.1919 63.5484 81.632 63.2887 80.2017 62.7544C78.7811 62.2298 77.5491 61.474 76.5055 60.487C75.4717 59.5 74.6608 58.3059 74.0727 56.9048C73.4846 55.5036 73.1832 53.9388 73.1685 52.2104C73.1592 51.1069 73.287 50.0559 73.5519 49.0575C73.8169 48.059 74.1948 47.1377 74.6857 46.2935C75.1765 45.4395 75.7706 44.6677 76.4679 43.9779C77.1652 43.2882 77.9415 42.7051 78.7969 42.2289C79.6619 41.7427 80.5865 41.3684 81.5706 41.1058C82.5645 40.8334 83.6033 40.6924 84.6873 40.6828C85.7712 40.6733 86.8172 40.7911 87.8252 41.0361C88.8428 41.2713 89.7931 41.6194 90.6759 42.0804C91.5588 42.5414 92.3644 43.1056 93.0927 43.7731C93.8211 44.4405 94.4428 45.1968 94.9578 46.0419C95.4825 46.887 95.8908 47.8111 96.1825 48.8145C96.4742 49.808 96.6248 50.8712 96.6344 52.004ZM92.6063 52.0394C92.5997 51.268 92.5247 50.4873 92.3813 49.6975C92.2475 48.8979 92.0408 48.1331 91.7612 47.4031C91.4815 46.6634 91.1289 45.9731 90.7035 45.3323C90.2878 44.6816 89.7899 44.1195 89.2097 43.6461C88.6391 43.1628 87.9914 42.7877 87.2664 42.5206C86.5414 42.2437 85.7346 42.1092 84.8459 42.1171C83.9573 42.1249 83.1529 42.2736 82.4327 42.5631C81.7124 42.8526 81.0712 43.244 80.509 43.7373C79.9466 44.2208 79.4583 44.7915 79.044 45.4495C78.6295 46.0977 78.2887 46.794 78.0216 47.5386C77.7545 48.2832 77.5559 49.0516 77.4259 49.8437C77.3057 50.6359 77.2488 51.4127 77.2553 52.1744C77.2622 52.985 77.3276 53.795 77.4517 54.6044C77.5758 55.4139 77.7679 56.1886 78.0281 56.9286C78.2882 57.6587 78.6212 58.3443 79.027 58.9853C79.4426 59.6164 79.9355 60.1639 80.5059 60.6276C81.0763 61.0914 81.7337 61.4567 82.4782 61.7236C83.2323 61.9806 84.0781 62.105 85.0156 62.0968C85.9238 62.0888 86.7429 61.9449 87.473 61.665C88.203 61.3851 88.8492 61.0035 89.4115 60.52C89.9836 60.0364 90.472 59.4755 90.8768 58.8371C91.2815 58.189 91.6125 57.4927 91.8698 56.7482C92.1272 56.0037 92.316 55.2306 92.4361 54.4287C92.5563 53.6268 92.613 52.8304 92.6063 52.0394ZM119.909 51.7406C119.919 52.8246 119.776 53.8562 119.482 54.8353C119.197 55.8047 118.789 56.7067 118.259 57.5415C117.739 58.3762 117.116 59.1337 116.389 59.8139C115.662 60.4844 114.857 61.0628 113.972 61.5491C113.097 62.0256 112.163 62.3951 111.169 62.6578C110.185 62.9204 109.17 63.0562 108.125 63.0654C107.598 63.0701 106.983 63.0706 106.279 63.067C105.586 63.0634 104.873 63.0452 104.14 63.0126C103.417 62.9799 102.714 62.9226 102.029 62.8407C101.355 62.7588 100.778 62.6467 100.298 62.5044L100.297 62.3579C100.286 61.1372 100.286 59.9263 100.295 58.725C100.314 57.5236 100.333 56.3124 100.352 55.0915C100.382 52.8548 100.412 50.6328 100.442 48.4254C100.482 46.2082 100.522 43.9812 100.561 41.7444C101.907 41.5177 103.268 41.3544 104.644 41.2544C106.03 41.1445 107.411 41.0836 108.788 41.0715C109.774 41.0628 110.732 41.1813 111.662 41.427C112.592 41.6728 113.464 42.0265 114.279 42.4881C115.103 42.9496 115.855 43.5045 116.534 44.1529C117.223 44.7913 117.815 45.5088 118.31 46.3053C118.806 47.1017 119.194 47.9577 119.475 48.8733C119.756 49.7888 119.901 50.7446 119.909 51.7406ZM115.864 51.4393C115.851 49.9745 115.674 48.687 115.333 47.5766C114.991 46.4663 114.466 45.5383 113.756 44.7925C113.047 44.037 112.148 43.4736 111.061 43.1023C109.984 42.7212 108.698 42.5371 107.204 42.5503C106.784 42.554 106.359 42.5626 105.93 42.5761C105.5 42.5799 105.066 42.5984 104.626 42.6316L103.79 61.4482C104.524 61.598 105.267 61.6794 106.019 61.6923C106.771 61.6955 107.508 61.6939 108.231 61.6875C109.1 61.6799 109.894 61.5264 110.615 61.2271C111.335 60.9278 111.976 60.5266 112.538 60.0236C113.11 59.5107 113.603 58.9155 114.017 58.238C114.441 57.5605 114.791 56.8445 115.068 56.09C115.345 55.3356 115.548 54.5623 115.678 53.7701C115.808 52.9682 115.87 52.1912 115.864 51.4393ZM136.215 55.2888C135.765 55.2341 135.281 55.1896 134.763 55.155C134.255 55.1204 133.737 55.0957 133.21 55.0808C132.682 55.0562 132.16 55.0412 131.642 55.036C131.124 55.0308 130.636 55.0302 130.177 55.0342C129.738 55.0381 129.303 55.0517 128.874 55.075C128.444 55.0886 128.01 55.107 127.57 55.1304C127.576 55.7554 127.58 56.3315 127.585 56.8589C127.589 57.3862 127.594 57.8891 127.598 58.3676C127.602 58.8363 127.606 59.2953 127.609 59.7445C127.623 60.1936 127.637 60.6525 127.65 61.1212C128.187 61.0871 128.797 61.0329 129.48 60.9586C130.173 60.8841 130.895 60.7996 131.646 60.7051C132.397 60.6009 133.158 60.4819 133.928 60.3481C134.708 60.2045 135.464 60.0465 136.195 59.8741C136.926 59.6919 137.608 59.4905 138.241 59.2701C138.883 59.0496 139.438 58.8104 139.904 58.5523L139.994 62.1845L123.53 62.3293L123.878 41.261L140.267 40.8532L140.023 44.8984C139.61 44.6286 139.081 44.3891 138.435 44.1799C137.798 43.9707 137.098 43.7864 136.335 43.6271C135.582 43.4677 134.79 43.3331 133.959 43.2232C133.128 43.1035 132.311 43.0082 131.51 42.9371C130.718 42.8659 129.971 42.809 129.267 42.7664C128.573 42.7237 127.973 42.6948 127.465 42.6797L127.558 53.6803L127.734 53.6787C128.398 53.6729 129.091 53.657 129.813 53.6311C130.536 53.6053 131.263 53.5696 131.995 53.5241C132.737 53.4785 133.464 53.4281 134.177 53.373C134.899 53.3081 135.592 53.2385 136.255 53.1643L136.215 55.2888ZM148.24 41.2957L147.484 54.047C148.465 53.5013 149.412 52.8679 150.324 52.147C151.236 51.426 152.094 50.6616 152.897 49.8537C153.711 49.0458 154.461 48.2237 155.147 47.3876C155.833 46.5416 156.437 45.7258 156.957 44.9399C157.488 44.154 157.926 43.4176 158.272 42.731C158.618 42.0443 158.852 41.4514 158.974 40.9523L163.217 41.999C162.911 42.7341 162.458 43.534 161.86 44.3987C161.262 45.2536 160.557 46.129 159.744 47.0248C158.941 47.9206 158.05 48.8074 157.071 49.6852C156.102 50.5629 155.088 51.3873 154.03 52.1583L163.149 61.5853L158.472 62.8277L152.297 53.3455C151.472 53.8703 150.646 54.3464 149.819 54.7736C149.002 55.1909 148.19 55.5399 147.382 55.8204L147.012 62.2986L144.009 62.3836L143.829 41.1441L148.24 41.2957Z" fill="#F2F2F2"/>
</svg>
