<svg width="140" height="59" viewBox="0 0 140 59" fill="none" xmlns="http://www.w3.org/2000/svg">
<circle cx="27.6479" cy="26.2012" r="23" fill="#EECF90" stroke="#4F4F4F" stroke-width="4"/>
<path d="M13.0724 35.4775C13.1721 34.5587 13.3098 33.5222 13.4855 32.3683C13.671 31.2143 13.8854 30.0063 14.1286 28.7443C14.3815 27.4725 14.6537 26.181 14.9453 24.8698C15.2466 23.5488 15.5629 22.2666 15.8942 21.0234C16.2351 19.7704 16.5864 18.5856 16.948 17.4691C17.3096 16.3526 17.6772 15.3581 18.0506 14.4857L21.4325 14.2508C21.7303 14.8146 22.0484 15.471 22.3868 16.2201C22.735 16.969 23.0934 17.7764 23.4621 18.6423C23.8405 19.4984 24.2241 20.3984 24.613 21.3423C25.0019 22.2862 25.386 23.2447 25.7654 24.218C26.1447 25.1815 26.5142 26.1402 26.8738 27.0941C27.2335 28.048 27.5734 28.9679 27.8934 29.8538C28.0801 28.8365 28.3048 27.7016 28.5676 26.4493C28.8304 25.1872 29.1269 23.8808 29.4572 22.5302C29.7973 21.1697 30.1665 19.7943 30.5648 18.4041C30.9631 17.004 31.3911 15.6574 31.8489 14.3643L35.8314 14.1242C36.4305 15.6717 37.0758 17.4825 37.7672 19.5566C38.3586 21.3386 39.0313 23.5105 39.7855 26.0723C40.5495 28.634 41.3411 31.5715 42.1603 34.8847L37.0717 35.9842C37.0585 35.5742 37.0199 35.0569 36.956 34.4325C36.9018 33.7981 36.8226 33.0957 36.7184 32.3251C36.624 31.5544 36.5095 30.7302 36.3751 29.8524C36.2406 28.9649 36.0913 28.058 35.9272 27.1316C35.7728 26.2052 35.5989 25.2741 35.4054 24.3383C35.2216 23.3926 35.0234 22.4812 34.8109 21.6041C34.608 20.7172 34.391 19.8793 34.1596 19.0902C33.938 18.2914 33.7122 17.5707 33.4821 16.9282C33.1483 17.8784 32.8344 18.8578 32.5402 19.8662C32.2459 20.865 31.9712 21.8635 31.716 22.8619C31.4706 23.8602 31.2396 24.8388 31.0231 25.7978C30.8164 26.7567 30.6288 27.6617 30.4602 28.5128C30.0671 30.5183 29.7273 32.4794 29.4408 34.396L25.9585 34.8808C25.9585 34.8905 25.8735 34.6471 25.7032 34.1506C25.5427 33.6441 25.3123 32.9674 25.0121 32.1204C24.7119 31.2637 24.3567 30.2658 23.9466 29.1268C23.5366 27.9877 23.0918 26.7856 22.6123 25.5202C22.1327 24.2548 21.6237 22.9555 21.085 21.6223C20.5561 20.289 20.0227 19.0046 19.4848 17.7691C19.0856 19.0617 18.7459 20.4563 18.4656 21.953C18.1853 23.4497 17.9494 24.9948 17.7579 26.5883C17.5761 28.1818 17.4286 29.7945 17.3155 31.4264C17.2024 33.0485 17.1181 34.6265 17.0628 36.1602L13.0724 35.4775ZM58.0955 21.2138L57.7176 35.3583L55.7453 35.4147L55.226 21.4148L58.0955 21.2138ZM76.1045 28.1748C76.1109 28.9234 76.0225 29.6339 75.8394 30.3061C75.6562 30.9718 75.3945 31.5894 75.0543 32.1588C74.7141 32.7282 74.305 33.2396 73.8271 33.6931C73.3491 34.1465 72.8185 34.532 72.2353 34.8497C71.652 35.1673 71.0258 35.4137 70.3567 35.5889C69.6876 35.7641 68.9917 35.8548 68.2691 35.8612C67.1428 35.8711 66.1029 35.6979 65.1493 35.3417C64.2023 34.992 63.381 34.4881 62.6852 33.8301C61.996 33.1721 61.4554 32.3761 61.0633 31.442C60.6713 30.5079 60.4704 29.4647 60.4606 28.3124C60.4543 27.5767 60.5395 26.8761 60.7162 26.2104C60.8928 25.5448 61.1448 24.9306 61.472 24.3678C61.7992 23.7985 62.1953 23.2839 62.6601 22.8241C63.125 22.3642 63.6426 21.9756 64.2128 21.658C64.7895 21.3339 65.4059 21.0844 66.062 20.9093C66.7245 20.7277 67.4171 20.6337 68.1397 20.6274C68.8624 20.621 69.5597 20.6995 70.2317 20.8629C70.9101 21.0197 71.5436 21.2517 72.1322 21.5591C72.7207 21.8664 73.2578 22.2426 73.7434 22.6875C74.2289 23.1325 74.6434 23.6367 74.9867 24.2001C75.3366 24.7634 75.6087 25.3795 75.8032 26.0484C75.9977 26.7108 76.0981 27.4196 76.1045 28.1748ZM73.4191 28.1984C73.4147 27.6841 73.3647 27.1637 73.2691 26.6372C73.1799 26.1041 73.0421 25.5942 72.8557 25.1075C72.6692 24.6144 72.4342 24.1542 72.1506 23.727C71.8734 23.2932 71.5415 22.9185 71.1547 22.6029C70.7743 22.2807 70.3425 22.0306 69.8592 21.8525C69.3758 21.668 68.8379 21.5783 68.2455 21.5835C67.6531 21.5887 67.1168 21.6878 66.6367 21.8809C66.1565 22.0739 65.729 22.3348 65.3542 22.6637C64.9793 22.986 64.6538 23.3665 64.3775 23.8051C64.1012 24.2372 63.874 24.7015 63.696 25.1979C63.5179 25.6942 63.3855 26.2065 63.2988 26.7346C63.2187 27.2627 63.1808 27.7806 63.1851 28.2884C63.1897 28.8288 63.2333 29.3688 63.316 29.9084C63.3987 30.4481 63.5268 30.9645 63.7003 31.4578C63.8737 31.9446 64.0957 32.4017 64.3663 32.829C64.6433 33.2497 64.9719 33.6147 65.3521 33.9239C65.7324 34.233 66.1707 34.4766 66.667 34.6545C67.1698 34.8259 67.7336 34.9088 68.3586 34.9033C68.9641 34.898 69.5101 34.802 69.9969 34.6155C70.4836 34.4289 70.9144 34.1744 71.2893 33.8521C71.6706 33.5297 71.9963 33.1558 72.2661 32.7302C72.5359 32.2981 72.7565 31.8339 72.9281 31.3376C73.0997 30.8413 73.2255 30.3258 73.3056 29.7913C73.3857 29.2567 73.4235 28.7257 73.4191 28.1984ZM91.6211 27.9992C91.6273 28.7218 91.5322 29.4096 91.3359 30.0624C91.1461 30.7086 90.8745 31.3099 90.5211 31.8665C90.1743 32.4229 89.7586 32.9279 89.2742 33.3814C88.7897 33.8284 88.2526 34.214 87.6629 34.5382C87.0796 34.8558 86.4567 35.1022 85.7941 35.2773C85.138 35.4524 84.4616 35.543 83.765 35.5491C83.4135 35.5522 83.0033 35.5525 82.5345 35.5501C82.0723 35.5477 81.5969 35.5356 81.1084 35.5139C80.6264 35.4921 80.1573 35.4539 79.7011 35.3993C79.2514 35.3446 78.8667 35.2699 78.5468 35.175L78.546 35.0774C78.5391 34.2636 78.5388 33.4563 78.545 32.6554C78.5577 31.8545 78.5704 31.0471 78.583 30.2331C78.6029 28.742 78.6229 27.2607 78.6429 25.7891C78.6694 24.3109 78.6959 22.8263 78.7223 21.3351C79.6195 21.1839 80.5268 21.0751 81.4442 21.0084C82.3681 20.9352 83.289 20.8945 84.207 20.8864C84.8645 20.8806 85.5032 20.9597 86.1231 21.1235C86.743 21.2873 87.3245 21.5231 87.8675 21.8308C88.417 22.1385 88.9182 22.5085 89.3711 22.9407C89.8304 23.3664 90.2251 23.8447 90.5552 24.3756C90.8852 24.9066 91.144 25.4773 91.3315 26.0876C91.5189 26.698 91.6155 27.3352 91.6211 27.9992ZM88.924 27.7983C88.9157 26.8218 88.7978 25.9634 88.5701 25.2232C88.3425 24.483 87.9922 23.8643 87.5192 23.3672C87.0461 22.8635 86.4472 22.4879 85.7224 22.2403C85.0041 21.9862 84.1469 21.8636 83.1509 21.8723C82.8709 21.8748 82.5877 21.8805 82.3014 21.8896C82.0149 21.8921 81.7253 21.9044 81.4325 21.9265L80.8749 34.4709C81.3641 34.5708 81.8593 34.6251 82.3607 34.6337C82.8621 34.6358 83.3536 34.6347 83.8354 34.6305C84.4148 34.6254 84.9445 34.523 85.4246 34.3235C85.9047 34.124 86.3321 33.8565 86.7069 33.5212C87.0881 33.1793 87.4168 32.7825 87.6929 32.3308C87.9756 31.8791 88.2092 31.4018 88.3937 30.8988C88.5782 30.3959 88.7138 29.8803 88.8005 29.3522C88.8871 28.8176 88.9283 28.2996 88.924 27.7983ZM102.491 30.3646C102.191 30.3282 101.869 30.2985 101.524 30.2755C101.185 30.2524 100.84 30.2359 100.488 30.226C100.136 30.2096 99.7879 30.1996 99.4428 30.1961C99.0977 30.1927 98.7722 30.1923 98.4662 30.195C98.1733 30.1975 97.8836 30.2066 97.5973 30.2221C97.3109 30.2312 97.0213 30.2435 96.7284 30.2591C96.7319 30.6757 96.7352 31.0598 96.7382 31.4114C96.7412 31.7629 96.744 32.0982 96.7467 32.4172C96.7494 32.7297 96.752 33.0357 96.7545 33.3351C96.7636 33.6345 96.7727 33.9405 96.7819 34.2529C97.1397 34.2302 97.5464 34.1941 98.0017 34.1445C98.4635 34.0949 98.9448 34.0385 99.4456 33.9755C99.9463 33.906 100.453 33.8267 100.967 33.7375C101.487 33.6418 101.991 33.5365 102.478 33.4215C102.965 33.3 103.42 33.1658 103.842 33.0189C104.27 32.8719 104.64 32.7124 104.951 32.5403L105.011 34.9618L94.0347 35.0583L94.267 21.0128L105.193 20.7409L105.03 23.4377C104.755 23.2579 104.402 23.0982 103.971 22.9587C103.547 22.8192 103.08 22.6964 102.572 22.5902C102.069 22.4839 101.541 22.3942 100.987 22.3209C100.433 22.2411 99.8891 22.1776 99.3548 22.1302C98.827 22.0827 98.3286 22.0448 97.8596 22.0164C97.3971 21.9879 96.9966 21.9686 96.6579 21.9586L96.7202 29.2923L96.8374 29.2913C97.2801 29.2874 97.7422 29.2768 98.2239 29.2595C98.7055 29.2423 99.1904 29.2185 99.6784 29.1882C100.173 29.1578 100.658 29.1242 101.133 29.0875C101.614 29.0442 102.076 28.9978 102.518 28.9483L102.491 30.3646ZM110.508 21.0359L110.004 29.5368C110.658 29.173 111.29 28.7507 111.898 28.2701C112.506 27.7895 113.077 27.2799 113.613 26.7413C114.156 26.2026 114.655 25.6546 115.113 25.0972C115.57 24.5332 115.973 23.9893 116.32 23.4654C116.674 22.9414 116.966 22.4506 117.196 21.9928C117.427 21.535 117.583 21.1397 117.665 20.807L120.493 21.5048C120.289 21.9949 119.987 22.5281 119.588 23.1046C119.19 23.6745 118.719 24.2581 118.177 24.8554C117.642 25.4525 117.048 26.0437 116.396 26.6289C115.749 27.214 115.074 27.7636 114.368 28.2777L120.447 34.5623L117.329 35.3906L113.213 29.0691C112.663 29.419 112.112 29.7364 111.561 30.0212C111.016 30.2994 110.475 30.532 109.936 30.7191L109.689 35.0378L107.688 35.0945L107.568 20.9349L110.508 21.0359Z" fill="#333333"/>
<path d="M61.4574 49.3592C61.4607 49.7381 61.3912 50.0727 61.2492 50.363C61.111 50.6533 60.9217 50.907 60.6814 51.1239C60.4449 51.3369 60.171 51.5171 59.8598 51.6644C59.5485 51.8077 59.2233 51.9239 58.8842 52.0128C58.5451 52.1017 58.2038 52.1653 57.8604 52.2035C57.5208 52.2416 57.2007 52.262 56.8999 52.2647C56.6695 52.2667 56.4409 52.2648 56.2143 52.259C55.9877 52.2531 55.759 52.2356 55.5283 52.2064L55.5271 54.8315L54.0156 54.8565C54.0117 53.4815 53.9903 52.1145 53.9514 50.7554C53.9125 49.3924 53.8755 48.0235 53.8404 46.6488C54.1173 46.5916 54.4098 46.5441 54.7181 46.5063C55.0264 46.4684 55.3387 46.4383 55.6549 46.416C55.9711 46.3898 56.2854 46.3714 56.5978 46.3608C56.9102 46.3503 57.209 46.3437 57.4942 46.3412C57.8067 46.3385 58.1213 46.3611 58.4381 46.4091C58.755 46.4571 59.0583 46.5326 59.3483 46.6355C59.6421 46.7384 59.9167 46.8707 60.172 47.0325C60.4273 47.1944 60.6497 47.3877 60.8391 47.6126C61.0285 47.8375 61.1772 48.096 61.2851 48.388C61.3969 48.6761 61.4544 48.9999 61.4574 49.3592ZM56.6027 46.9409C56.4035 46.9426 56.2024 46.9483 55.9994 46.9579C55.8002 46.9675 55.6011 46.9849 55.4021 47.01L55.5351 51.6262C55.7189 51.652 55.9046 51.666 56.0921 51.6682C56.2796 51.6705 56.471 51.6707 56.6663 51.669C56.928 51.6667 57.1877 51.6488 57.4452 51.6153C57.7066 51.5817 57.9542 51.5288 58.188 51.4564C58.4218 51.3801 58.6377 51.2825 58.8359 51.1636C59.0341 51.0408 59.2047 50.8908 59.3478 50.7138C59.4947 50.5328 59.6081 50.3247 59.6882 50.0896C59.7682 49.8507 59.8069 49.5749 59.8042 49.2624C59.8018 48.9734 59.7546 48.716 59.6629 48.4902C59.5711 48.2605 59.4463 48.0604 59.2886 47.89C59.1348 47.7155 58.9539 47.5687 58.7458 47.4494C58.5377 47.3262 58.3162 47.2266 58.0811 47.1505C57.8461 47.0745 57.6015 47.02 57.3473 46.9871C57.097 46.9541 56.8488 46.9387 56.6027 46.9409ZM66.6553 45.9618C67.1866 45.9571 67.6541 46.0468 68.0581 46.2307C68.462 46.4108 68.8117 46.6577 69.1074 46.9715C69.403 47.2814 69.6502 47.6426 69.849 48.0549C70.0517 48.4633 70.2136 48.8935 70.3346 49.3456C70.4556 49.7938 70.5415 50.25 70.5923 50.7145C70.647 51.1749 70.6761 51.6122 70.6796 52.0262C70.6827 52.3895 70.6622 52.7374 70.6182 53.0698C70.5741 53.4022 70.5259 53.6995 70.4734 53.9617C70.4096 54.267 70.3378 54.5547 70.2581 54.825L68.4801 54.5242C68.591 54.2537 68.6939 53.9461 68.7886 53.6015C68.8873 53.2569 68.9741 52.9046 69.0492 52.5445C68.5762 52.5057 68.1033 52.4825 67.6306 52.475C67.1618 52.4674 66.6949 52.4656 66.2301 52.4697C65.8668 52.4729 65.5036 52.478 65.1404 52.4851C64.7771 52.4922 64.412 52.5091 64.045 52.5358C64.126 52.8671 64.2206 53.1983 64.3289 53.5294C64.4372 53.8605 64.5611 54.1993 64.7008 54.5457L62.8522 54.9018C62.7647 54.7229 62.6848 54.5146 62.6125 54.277C62.5522 54.0744 62.4954 53.8288 62.4422 53.5402C62.3928 53.2476 62.3666 52.9178 62.3635 52.5506C62.3594 52.0701 62.3747 51.5758 62.4095 51.0677C62.4481 50.5556 62.52 50.0569 62.6253 49.5716C62.7345 49.0863 62.8868 48.6259 63.0823 48.1906C63.2818 47.7552 63.5403 47.374 63.8578 47.047C64.1792 46.716 64.5677 46.4548 65.0231 46.2633C65.4824 46.0678 66.0265 45.9673 66.6553 45.9618ZM63.7729 50.1533C63.7756 50.4775 63.79 50.7919 63.816 51.0963C63.842 51.3969 63.8816 51.6935 63.9349 51.986C64.3257 52.006 64.7145 52.0162 65.1012 52.0167C65.4919 52.0172 65.8864 52.0157 66.2848 52.0122C66.7575 52.008 67.232 52.0019 67.7085 51.9938C68.1889 51.9817 68.6712 51.956 69.1552 51.9166C69.2218 51.4824 69.2535 51.0739 69.2503 50.6911C69.2479 50.4138 69.2239 50.1191 69.1783 49.8069C69.1366 49.4948 69.0695 49.1868 68.9771 48.8829C68.8846 48.5751 68.765 48.2812 68.618 48.0013C68.475 47.7213 68.2991 47.4767 68.0903 47.2676C67.8815 47.0546 67.6398 46.8868 67.3653 46.7642C67.0947 46.6376 66.7875 46.5759 66.4438 46.5789C66.1274 46.5817 65.8427 46.635 65.5896 46.7388C65.3366 46.8426 65.1093 46.9833 64.9076 47.1608C64.7099 47.3383 64.5378 47.5449 64.3914 47.7806C64.2488 48.0123 64.1318 48.2614 64.0403 48.5279C63.9488 48.7904 63.8808 49.0605 63.8363 49.3383C63.7917 49.616 63.7706 49.8877 63.7729 50.1533ZM75.6563 55.006C75.1993 55.01 74.7711 54.9572 74.3717 54.8474C73.9723 54.7376 73.6076 54.5709 73.2776 54.3472C72.9475 54.1236 72.6541 53.8429 72.3973 53.5053C72.1445 53.1677 71.936 52.775 71.7721 52.3272L73.7984 52.198C73.8357 52.9165 74.0455 53.4635 74.4276 53.8391C74.8097 54.2107 75.3464 54.3935 76.0378 54.3874C76.3073 54.385 76.5766 54.3553 76.8456 54.2983C77.1147 54.2412 77.3541 54.1473 77.564 54.0166C77.7777 53.8819 77.95 53.7065 78.081 53.4905C78.2159 53.2745 78.282 53.0063 78.2793 52.686C78.2774 52.4633 78.2328 52.2743 78.1455 52.1188C78.0582 51.9594 77.9419 51.8276 77.7965 51.7234C77.6549 51.6192 77.4902 51.5366 77.3022 51.4758C77.118 51.411 76.9262 51.3619 76.7267 51.3285C76.531 51.2912 76.3355 51.2636 76.14 51.2458C75.9445 51.228 75.7647 51.212 75.6005 51.1978C75.3347 51.1806 75.0571 51.1518 74.7677 51.1113C74.4783 51.0709 74.1926 51.0129 73.9107 50.9372C73.6327 50.8616 73.3663 50.7643 73.1114 50.6454C72.8564 50.5266 72.6325 50.3762 72.4395 50.1943C72.2465 50.0085 72.0923 49.7891 71.9769 49.5362C71.8615 49.2833 71.8023 48.985 71.7994 48.6413C71.7966 48.3132 71.8487 48.0158 71.9559 47.7492C72.063 47.4827 72.2094 47.247 72.3952 47.0422C72.5848 46.8335 72.8021 46.6539 73.0469 46.5033C73.2956 46.3487 73.5582 46.2234 73.8347 46.1272C74.1151 46.027 74.4016 45.9523 74.6942 45.9028C74.9867 45.8534 75.2697 45.8274 75.5432 45.825C75.8205 45.8226 76.1117 45.8376 76.4166 45.8701C76.7255 45.9025 77.0326 45.9584 77.338 46.0378C77.6434 46.1171 77.9373 46.222 78.2196 46.3523C78.5059 46.4787 78.7631 46.6366 78.9912 46.826C79.2233 47.0154 79.4166 47.2383 79.5712 47.4947C79.7257 47.7473 79.8277 48.0374 79.8774 48.3651L77.9238 48.7808C77.946 48.636 77.9565 48.4875 77.9552 48.3352C77.9522 47.9797 77.8774 47.6796 77.7307 47.4348C77.5841 47.1899 77.3911 46.9944 77.1515 46.848C76.912 46.6978 76.6415 46.5908 76.3402 46.527C76.0388 46.4633 75.7319 46.4328 75.4194 46.4355C75.1421 46.438 74.867 46.4775 74.5942 46.5541C74.3253 46.6268 74.0821 46.7363 73.8646 46.8828C73.651 47.0292 73.4787 47.2124 73.3478 47.4323C73.2168 47.6522 73.1526 47.9106 73.1551 48.2074C73.1568 48.4106 73.213 48.5859 73.3236 48.7333C73.4343 48.8808 73.5779 49.0084 73.7546 49.1163C73.9352 49.2202 74.1371 49.3063 74.3604 49.3746C74.5836 49.443 74.8068 49.4996 75.0298 49.5445C75.2567 49.5855 75.4719 49.6188 75.6752 49.6443C75.8785 49.666 76.0505 49.682 76.1913 49.6925C76.4415 49.7177 76.7035 49.7544 76.9774 49.8028C77.2512 49.8473 77.5213 49.9113 77.7876 49.9949C78.054 50.0785 78.3088 50.1837 78.5521 50.3105C78.7953 50.4372 79.0076 50.5916 79.1888 50.7736C79.374 50.9556 79.5203 51.1692 79.6279 51.4143C79.7393 51.6594 79.7964 51.9402 79.7991 52.2566C79.802 52.5925 79.7381 52.8939 79.6076 53.1607C79.477 53.4235 79.3012 53.6575 79.0803 53.8626C78.8632 54.0637 78.6128 54.2378 78.3288 54.3848C78.0449 54.528 77.749 54.6439 77.4411 54.7325C77.1333 54.8251 76.8253 54.8922 76.517 54.934C76.2088 54.9797 75.9219 55.0037 75.6563 55.006ZM82.9456 46.0353L82.7188 54.522L81.5355 54.5559L81.2239 46.1559L82.9456 46.0353ZM89.8611 51.6993C89.6813 51.6775 89.4877 51.6596 89.2806 51.6458C89.0773 51.632 88.8702 51.6221 88.6592 51.6161C88.4482 51.6063 88.2391 51.6003 88.0321 51.5982C87.825 51.5961 87.6297 51.5959 87.4461 51.5975C87.2704 51.599 87.0966 51.6045 86.9248 51.6138C86.7529 51.6192 86.5792 51.6266 86.4034 51.636C86.4056 51.886 86.4075 52.1164 86.4093 52.3274C86.4111 52.5383 86.4128 52.7394 86.4144 52.9308C86.416 53.1183 86.4176 53.3019 86.4191 53.4816C86.4246 53.6613 86.43 53.8448 86.4355 54.0323C86.6502 54.0187 86.8942 53.997 87.1674 53.9672C87.4445 53.9375 87.7333 53.9037 88.0338 53.8659C88.3342 53.8242 88.6385 53.7766 88.9467 53.7231C89.2587 53.6656 89.5609 53.6024 89.8533 53.5334C90.1456 53.4605 90.4184 53.38 90.6716 53.2919C90.9286 53.2037 91.1505 53.1079 91.3371 53.0047L91.3729 54.4576L84.7872 54.5155L84.9266 46.0882L91.4821 45.9251L91.3845 47.5432C91.2195 47.4352 91.0078 47.3394 90.7492 47.2558C90.4946 47.1721 90.2147 47.0984 89.9094 47.0346C89.6081 46.9709 89.2912 46.917 88.9588 46.8731C88.6264 46.8252 88.2998 46.7871 87.9793 46.7586C87.6626 46.7302 87.3636 46.7074 87.0822 46.6904C86.8047 46.6733 86.5643 46.6617 86.3612 46.6557L86.3985 51.0559L86.4688 51.0553C86.7344 51.053 87.0117 51.0466 87.3007 51.0363C87.5897 51.0259 87.8806 51.0116 88.1734 50.9934C88.4702 50.9752 88.761 50.9551 89.046 50.933C89.3349 50.907 89.612 50.8792 89.8774 50.8495L89.8611 51.6993ZM94.6712 46.1021L94.3688 51.2026C94.7615 50.9843 95.1402 50.731 95.505 50.4426C95.8697 50.1542 96.2128 49.8484 96.5343 49.5253C96.8597 49.2021 97.1597 48.8733 97.4342 48.5388C97.7087 48.2005 97.95 47.8741 98.1583 47.5598C98.3705 47.2454 98.5457 46.9509 98.684 46.6762C98.8223 46.4015 98.916 46.1644 98.9651 45.9647L100.662 46.3834C100.54 46.6775 100.359 46.9974 100.119 47.3433C99.8802 47.6852 99.598 48.0354 99.2729 48.3937C98.9517 48.752 98.5953 49.1068 98.2037 49.4579C97.8161 49.809 97.4107 50.1387 96.9875 50.4471L100.635 54.2179L98.764 54.7149L96.2942 50.922C95.964 51.1319 95.6335 51.3223 95.3029 51.4932C94.9762 51.6602 94.6512 51.7998 94.328 51.912L94.18 54.5032L92.9791 54.5372L92.907 46.0414L94.6712 46.1021ZM105.748 45.6179C106.279 45.6133 106.746 45.7029 107.15 45.8869C107.554 46.0669 107.904 46.3138 108.2 46.6277C108.495 46.9376 108.742 47.2987 108.941 47.711C109.144 48.1194 109.306 48.5496 109.427 49.0017C109.548 49.4499 109.634 49.9062 109.685 50.3706C109.739 50.8311 109.768 51.2683 109.772 51.6824C109.775 52.0456 109.754 52.3935 109.71 52.7259C109.666 53.0584 109.618 53.3557 109.566 53.6179C109.502 53.9231 109.43 54.2109 109.35 54.4811L107.572 54.1803C107.683 53.9098 107.786 53.6023 107.881 53.2577C107.98 52.913 108.066 52.5607 108.141 52.2006C107.668 52.1618 107.196 52.1386 106.723 52.1311C106.254 52.1235 105.787 52.1217 105.322 52.1258C104.959 52.129 104.596 52.1342 104.233 52.1413C103.869 52.1484 103.504 52.1653 103.137 52.1919C103.218 52.5233 103.313 52.8545 103.421 53.1856C103.529 53.5167 103.653 53.8554 103.793 54.2019L101.944 54.558C101.857 54.3791 101.777 54.1708 101.705 53.9331C101.644 53.7305 101.588 53.4849 101.534 53.1963C101.485 52.9038 101.459 52.5739 101.456 52.2067C101.452 51.7263 101.467 51.232 101.502 50.7238C101.54 50.2118 101.612 49.7131 101.718 49.2277C101.827 48.7424 101.979 48.282 102.175 47.8467C102.374 47.4113 102.633 47.0302 102.95 46.7031C103.271 46.3722 103.66 46.1109 104.115 45.9194C104.575 45.724 105.119 45.6235 105.748 45.6179ZM102.865 49.8095C102.868 50.1337 102.882 50.448 102.908 50.7525C102.934 51.053 102.974 51.3496 103.027 51.6421C103.418 51.6621 103.807 51.6723 104.193 51.6729C104.584 51.6733 104.979 51.6718 105.377 51.6683C105.85 51.6641 106.324 51.658 106.801 51.6499C107.281 51.6379 107.763 51.6122 108.247 51.5727C108.314 51.1385 108.346 50.73 108.343 50.3472C108.34 50.0699 108.316 49.7752 108.271 49.4631C108.229 49.1509 108.162 48.8429 108.069 48.539C107.977 48.2312 107.857 47.9374 107.71 47.6574C107.567 47.3774 107.391 47.1328 107.183 46.9237C106.974 46.7107 106.732 46.5429 106.458 46.4203C106.187 46.2938 105.88 46.232 105.536 46.2351C105.22 46.2378 104.935 46.2911 104.682 46.3949C104.429 46.4987 104.202 46.6394 104 46.8169C103.802 46.9945 103.63 47.2011 103.484 47.4367C103.341 47.6685 103.224 47.9176 103.133 48.184C103.041 48.4465 102.973 48.7167 102.928 48.9944C102.884 49.2722 102.863 49.5438 102.865 49.8095Z" fill="#333333"/>
</svg>
