<svg width="176" height="96" viewBox="0 0 176 96" fill="none" xmlns="http://www.w3.org/2000/svg">
<circle cx="31.5" cy="50.5" r="28.5" fill="#EECF90" stroke="#4F4F4F" stroke-width="4"/>
<path d="M14.5425 62.9164C14.6687 61.7525 14.8431 60.4397 15.0657 58.9781C15.3007 57.5163 15.5722 55.9862 15.8803 54.3877C16.2006 52.7768 16.5454 51.1409 16.9148 49.48C17.2964 47.8067 17.6971 46.1826 18.1166 44.6079C18.5485 43.0207 18.9935 41.52 19.4515 40.1058C19.9096 38.6915 20.3751 37.4318 20.8482 36.3267L25.132 36.0293C25.5091 36.7434 25.912 37.5749 26.3407 38.5236C26.7817 39.4722 27.2357 40.495 27.7027 41.5918C28.182 42.6762 28.6679 43.8162 29.1605 45.0118C29.6531 46.2073 30.1397 47.4215 30.6202 48.6543C31.1006 49.8748 31.5686 51.0891 32.0242 52.2974C32.4798 53.5057 32.9103 54.6709 33.3157 55.793C33.5521 54.5044 33.8368 53.067 34.1697 51.4806C34.5025 49.8819 34.8781 48.2272 35.2966 46.5164C35.7273 44.7932 36.1949 43.051 36.6995 41.29C37.204 39.5166 37.7462 37.811 38.326 36.173L43.3705 35.8688C44.1294 37.829 44.9467 40.1227 45.8226 42.7499C46.5716 45.007 47.4237 47.7581 48.3791 51.0031C49.3468 54.248 50.3494 57.9688 51.387 62.1655L44.9416 63.5582C44.9248 63.0388 44.876 62.3836 44.795 61.5927C44.7264 60.7892 44.626 59.8994 44.494 58.9233C44.3744 57.9471 44.2295 56.9031 44.0592 55.7913C43.8889 54.6671 43.6997 53.5183 43.4918 52.345C43.2963 51.1715 43.076 49.9921 42.8309 48.8067C42.5981 47.6088 42.3471 46.4544 42.0779 45.3435C41.8209 44.22 41.5459 43.1586 41.2529 42.1592C40.9722 41.1473 40.6861 40.2344 40.3947 39.4205C39.972 40.6242 39.5743 41.8647 39.2016 43.1421C38.8289 44.4072 38.4809 45.672 38.1576 46.9366C37.8468 48.2011 37.5542 49.4407 37.28 50.6554C37.0182 51.87 36.7805 53.0163 36.567 54.0944C36.069 56.6347 35.6386 59.1187 35.2757 61.5465L30.8648 62.1605C30.8649 62.1729 30.7571 61.8646 30.5415 61.2356C30.3381 60.5941 30.0463 59.737 29.6661 58.6641C29.2858 57.5788 28.8359 56.3149 28.3165 54.8721C27.797 53.4293 27.2336 51.9066 26.6263 50.3038C26.0189 48.701 25.374 47.0552 24.6917 45.3665C24.0217 43.6777 23.3461 42.0507 22.6648 40.4857C22.1592 42.123 21.7288 43.8896 21.3738 45.7854C21.0188 47.6811 20.72 49.6383 20.4774 51.6568C20.2471 53.6751 20.0603 55.7179 19.9171 57.785C19.7737 59.8397 19.667 61.8384 19.5969 63.7812L14.5425 62.9164ZM69.621 41.562L69.054 62.7787L66.0956 62.8633L65.3167 41.8635L69.621 41.562ZM96.6344 52.0035C96.644 53.1265 96.5114 54.1922 96.2367 55.2005C95.962 56.199 95.5695 57.1254 95.0591 57.9795C94.5488 58.8336 93.9352 59.6008 93.2182 60.2809C92.5013 60.9611 91.7054 61.5394 90.8305 62.0159C89.9557 62.4923 89.0164 62.8619 88.0127 63.1247C87.009 63.3874 85.9652 63.5236 84.8813 63.5331C83.1919 63.548 81.632 63.2882 80.2017 62.7539C78.7811 62.2293 77.5491 61.4735 76.5055 60.4865C75.4717 59.4995 74.6608 58.3054 74.0727 56.9043C73.4846 55.5031 73.1832 53.9384 73.1685 52.2099C73.1592 51.1064 73.287 50.0555 73.5519 49.057C73.8169 48.0585 74.1948 47.1372 74.6857 46.293C75.1765 45.439 75.7706 44.6672 76.4679 43.9774C77.1652 43.2877 77.9415 42.7047 78.7969 42.2284C79.6619 41.7422 80.5865 41.3679 81.5706 41.1053C82.5645 40.8329 83.6033 40.6919 84.6873 40.6824C85.7712 40.6728 86.8172 40.7906 87.8252 41.0356C88.8428 41.2708 89.7931 41.6189 90.6759 42.0799C91.5588 42.5409 92.3644 43.1052 93.0927 43.7726C93.8211 44.4401 94.4428 45.1963 94.9578 46.0414C95.4825 46.8865 95.8908 47.8106 96.1825 48.814C96.4742 49.8075 96.6248 50.8707 96.6344 52.0035ZM92.6063 52.0389C92.5997 51.2675 92.5247 50.4868 92.3813 49.6971C92.2475 48.8974 92.0408 48.1326 91.7612 47.4026C91.4815 46.6629 91.1289 45.9726 90.7035 45.3318C90.2878 44.6811 89.7899 44.1191 89.2097 43.6456C88.6391 43.1623 87.9914 42.7872 87.2664 42.5201C86.5414 42.2433 85.7346 42.1087 84.8459 42.1166C83.9573 42.1244 83.1529 42.2731 82.4327 42.5626C81.7124 42.8522 81.0712 43.2436 80.509 43.7368C79.9466 44.2203 79.4583 44.791 79.044 45.449C78.6295 46.0972 78.2887 46.7936 78.0216 47.5381C77.7545 48.2827 77.5559 49.0511 77.4259 49.8433C77.3057 50.6354 77.2488 51.4123 77.2553 52.174C77.2622 52.9845 77.3276 53.7945 77.4517 54.604C77.5758 55.4134 77.7679 56.1882 78.0281 56.9281C78.2882 57.6582 78.6212 58.3438 79.027 58.9848C79.4426 59.6159 79.9355 60.1634 80.5059 60.6271C81.0763 61.0909 81.7337 61.4562 82.4782 61.7231C83.2323 61.9802 84.0781 62.1046 85.0156 62.0963C85.9238 62.0883 86.7429 61.9444 87.473 61.6645C88.203 61.3847 88.8492 61.003 89.4115 60.5195C89.9836 60.0359 90.472 59.475 90.8768 58.8366C91.2815 58.1885 91.6125 57.4922 91.8698 56.7477C92.1272 56.0032 92.316 55.2301 92.4361 54.4282C92.5563 53.6263 92.613 52.8299 92.6063 52.0389ZM119.909 51.7402C119.919 52.8241 119.776 53.8557 119.482 54.8349C119.197 55.8042 118.789 56.7063 118.259 57.541C117.739 58.3757 117.116 59.1332 116.389 59.8134C115.662 60.4839 114.857 61.0623 113.972 61.5486C113.097 62.0251 112.163 62.3946 111.169 62.6573C110.185 62.9199 109.17 63.0558 108.125 63.065C107.598 63.0696 106.983 63.0701 106.279 63.0665C105.586 63.0629 104.873 63.0447 104.14 63.0121C103.417 62.9794 102.714 62.9221 102.029 62.8402C101.355 62.7583 100.778 62.6462 100.298 62.5039L100.297 62.3574C100.286 61.1368 100.286 59.9258 100.295 58.7245C100.314 57.5231 100.333 56.3119 100.352 55.091C100.382 52.8543 100.412 50.6323 100.442 48.4249C100.482 46.2077 100.522 43.9807 100.561 41.7439C101.907 41.5173 103.268 41.3539 104.644 41.2539C106.03 41.1441 107.411 41.0831 108.788 41.071C109.774 41.0623 110.732 41.1808 111.662 41.4266C112.592 41.6723 113.464 42.026 114.279 42.4876C115.103 42.9491 115.855 43.504 116.534 44.1524C117.223 44.7909 117.815 45.5083 118.31 46.3048C118.806 47.1012 119.194 47.9572 119.475 48.8728C119.756 49.7883 119.901 50.7441 119.909 51.7402ZM115.864 51.4388C115.851 49.974 115.674 48.6865 115.333 47.5761C114.991 46.4658 114.466 45.5378 113.756 44.7921C113.047 44.0365 112.148 43.4731 111.061 43.1018C109.984 42.7207 108.698 42.5367 107.204 42.5498C106.784 42.5535 106.359 42.5621 105.93 42.5757C105.5 42.5794 105.066 42.5979 104.626 42.6311L103.79 61.4477C104.524 61.5975 105.267 61.6789 106.019 61.6918C106.771 61.695 107.508 61.6934 108.231 61.687C109.1 61.6794 109.894 61.5259 110.615 61.2266C111.335 60.9273 111.976 60.5261 112.538 60.0231C113.11 59.5102 113.603 58.915 114.017 58.2375C114.441 57.56 114.791 56.844 115.068 56.0895C115.345 55.3351 115.548 54.5618 115.678 53.7696C115.808 52.9677 115.87 52.1907 115.864 51.4388ZM136.215 55.2883C135.765 55.2336 135.281 55.1891 134.763 55.1546C134.255 55.12 133.737 55.0952 133.21 55.0803C132.682 55.0557 132.16 55.0407 131.642 55.0355C131.124 55.0303 130.636 55.0297 130.177 55.0338C129.738 55.0376 129.303 55.0512 128.874 55.0745C128.444 55.0881 128.01 55.1065 127.57 55.1299C127.576 55.7549 127.58 56.3311 127.585 56.8584C127.589 57.3857 127.594 57.8886 127.598 58.3671C127.602 58.8359 127.606 59.2948 127.609 59.744C127.623 60.1931 127.637 60.652 127.65 61.1207C128.187 61.0866 128.797 61.0325 129.48 60.9581C130.173 60.8836 130.895 60.7992 131.646 60.7046C132.397 60.6004 133.158 60.4814 133.928 60.3476C134.708 60.2041 135.464 60.046 136.195 59.8736C136.926 59.6914 137.608 59.4901 138.241 59.2696C138.883 59.0491 139.438 58.8099 139.904 58.5518L139.994 62.184L123.53 62.3288L123.878 41.2605L140.267 40.8527L140.023 44.8979C139.61 44.6281 139.081 44.3886 138.435 44.1795C137.798 43.9702 137.098 43.7859 136.335 43.6266C135.582 43.4672 134.79 43.3326 133.959 43.2227C133.128 43.103 132.311 43.0077 131.51 42.9366C130.718 42.8654 129.971 42.8085 129.267 42.7659C128.573 42.7232 127.973 42.6943 127.465 42.6792L127.558 53.6798L127.734 53.6782C128.398 53.6724 129.091 53.6565 129.813 53.6307C130.536 53.6048 131.263 53.5691 131.995 53.5236C132.737 53.478 133.464 53.4276 134.177 53.3725C134.899 53.3076 135.592 53.238 136.255 53.1638L136.215 55.2883ZM148.24 41.2952L147.484 54.0465C148.465 53.5008 149.412 52.8674 150.324 52.1465C151.236 51.4255 152.094 50.6611 152.897 49.8532C153.711 49.0453 154.461 48.2232 155.147 47.3871C155.833 46.5412 156.437 45.7253 156.957 44.9394C157.488 44.1535 157.926 43.4172 158.272 42.7305C158.618 42.0438 158.852 41.4509 158.974 40.9518L163.217 41.9985C162.911 42.7336 162.458 43.5335 161.86 44.3982C161.262 45.2531 160.557 46.1285 159.744 47.0244C158.941 47.9201 158.05 48.8069 157.071 49.6847C156.102 50.5624 155.088 51.3868 154.03 52.1578L163.149 61.5848L158.472 62.8272L152.297 53.345C151.472 53.8698 150.646 54.3459 149.819 54.7731C149.002 55.1904 148.19 55.5394 147.382 55.82L147.012 62.2981L144.009 62.3831L143.829 41.1436L148.24 41.2952Z" fill="#333333"/>
</svg>
