<svg width="140" height="60" viewBox="0 0 140 60" fill="none" xmlns="http://www.w3.org/2000/svg">
<circle cx="28" cy="27" r="23" fill="#EECF90" stroke="#4F4F4F" stroke-width="4"/>
<path d="M13.4245 36.2764C13.5241 35.3575 13.6618 34.3211 13.8376 33.1671C14.0231 32.0131 14.2374 30.8051 14.4806 29.5432C14.7335 28.2714 15.0058 26.9799 15.2974 25.6687C15.5987 24.3476 15.9149 23.0655 16.2462 21.8223C16.5871 20.5692 16.9384 19.3844 17.3 18.2679C17.6617 17.1514 18.0292 16.157 18.4027 15.2845L21.7846 15.0497C22.0824 15.6135 22.4005 16.2699 22.7389 17.0189C23.087 17.7678 23.4455 18.5752 23.8141 19.4412C24.1925 20.2972 24.5762 21.1972 24.965 22.1411C25.3539 23.085 25.7381 24.0436 26.1174 25.0168C26.4967 25.9803 26.8662 26.939 27.2259 27.8929C27.5856 28.8468 27.9254 29.7667 28.2454 30.6526C28.4321 29.6353 28.6569 28.5005 28.9197 27.2481C29.1824 25.986 29.4789 24.6796 29.8093 23.329C30.1493 21.9685 30.5185 20.5932 30.9169 19.2029C31.3152 17.8029 31.7432 16.4563 32.201 15.1631L36.1835 14.923C36.7826 16.4705 37.4278 18.2813 38.1193 20.3554C38.7106 22.1374 39.3834 24.3093 40.1376 26.8711C40.9016 29.4328 41.6931 32.3703 42.5123 35.6836L37.4238 36.7831C37.4105 36.373 37.372 35.8557 37.3081 35.2313C37.2539 34.597 37.1747 33.8945 37.0704 33.1239C36.976 32.3532 36.8616 31.529 36.7272 30.6513C36.5927 29.7637 36.4434 28.8568 36.2793 27.9305C36.1249 27.0041 35.951 26.0729 35.7575 25.1371C35.5737 24.1914 35.3755 23.28 35.1629 22.403C34.9601 21.5161 34.743 20.6781 34.5117 19.8891C34.2901 19.0902 34.0642 18.3695 33.8341 17.727C33.5004 18.6772 33.1864 19.6566 32.8922 20.6651C32.598 21.6638 32.3232 22.6623 32.068 23.6607C31.8226 24.659 31.5916 25.6376 31.3752 26.5966C31.1685 27.5555 30.9808 28.4605 30.8123 29.3116C30.4191 31.3171 30.0793 33.2782 29.7928 35.1948L26.3105 35.6796C26.3106 35.6894 26.2255 35.446 26.0553 34.9494C25.8947 34.443 25.6644 33.7663 25.3642 32.9193C25.0639 32.0625 24.7088 31.0646 24.2987 29.9256C23.8886 28.7866 23.4438 27.5844 22.9643 26.319C22.4848 25.0537 21.9757 23.7544 21.437 22.4212C20.9081 21.0879 20.3747 19.8035 19.8369 18.5679C19.4377 19.8605 19.0979 21.2552 18.8177 22.7518C18.5374 24.2485 18.3015 25.7936 18.1099 27.3871C17.9281 28.9806 17.7807 30.5933 17.6676 32.2252C17.5544 33.8474 17.4701 35.4253 17.4148 36.9591L13.4245 36.2764ZM58.4476 22.0126L58.0696 36.1571L56.0974 36.2135L55.5781 22.2136L58.4476 22.0126ZM76.4566 28.9736C76.4629 29.7223 76.3745 30.4327 76.1914 31.1049C76.0083 31.7706 75.7466 32.3882 75.4064 32.9576C75.0661 33.527 74.657 34.0385 74.1791 34.4919C73.7012 34.9453 73.1706 35.3309 72.5873 35.6485C72.004 35.9662 71.3779 36.2126 70.7087 36.3877C70.0396 36.5629 69.3438 36.6536 68.6211 36.66C67.4949 36.6699 66.455 36.4968 65.5014 36.1406C64.5544 35.7908 63.733 35.2869 63.0373 34.629C62.3481 33.9709 61.8075 33.1749 61.4154 32.2408C61.0233 31.3067 60.8224 30.2635 60.8126 29.1112C60.8064 28.3756 60.8916 27.6749 61.0682 27.0093C61.2449 26.3436 61.4968 25.7294 61.8241 25.1666C62.1513 24.5973 62.5473 24.0827 63.0122 23.6229C63.4771 23.1631 63.9946 22.7744 64.5649 22.4569C65.1415 22.1328 65.7579 21.8832 66.414 21.7081C67.0766 21.5265 67.7692 21.4325 68.4918 21.4262C69.2144 21.4198 69.9117 21.4983 70.5837 21.6617C71.2621 21.8185 71.8957 22.0506 72.4842 22.3579C73.0728 22.6652 73.6099 23.0414 74.0954 23.4863C74.581 23.9313 74.9954 24.4355 75.3388 24.9989C75.6886 25.5623 75.9608 26.1784 76.1553 26.8473C76.3497 27.5096 76.4501 28.2184 76.4566 28.9736ZM73.7711 28.9972C73.7667 28.4829 73.7167 27.9625 73.6211 27.436C73.532 26.9029 73.3942 26.393 73.2077 25.9064C73.0212 25.4132 72.7862 24.953 72.5026 24.5258C72.2255 24.092 71.8935 23.7173 71.5067 23.4017C71.1264 23.0795 70.6945 22.8294 70.2112 22.6513C69.7279 22.4668 69.19 22.3771 68.5976 22.3823C68.0051 22.3875 67.4689 22.4867 66.9887 22.6797C66.5086 22.8727 66.0811 23.1336 65.7062 23.4625C65.3314 23.7848 65.0058 24.1653 64.7296 24.6039C64.4533 25.0361 64.2261 25.5003 64.048 25.9967C63.8699 26.4931 63.7376 27.0053 63.6509 27.5334C63.5707 28.0615 63.5328 28.5794 63.5371 29.0872C63.5417 29.6276 63.5854 30.1676 63.6681 30.7072C63.7508 31.2469 63.8789 31.7634 64.0523 32.2567C64.2257 32.7434 64.4477 33.2005 64.7183 33.6278C64.9953 34.0486 65.324 34.4135 65.7042 34.7227C66.0844 35.0319 66.5227 35.2754 67.019 35.4533C67.5218 35.6247 68.0857 35.7076 68.7107 35.7021C69.3161 35.6968 69.8622 35.6009 70.3489 35.4143C70.8356 35.2277 71.2664 34.9733 71.6413 34.6509C72.0227 34.3286 72.3483 33.9546 72.6181 33.529C72.8879 33.0969 73.1086 32.6327 73.2802 32.1364C73.4517 31.6401 73.5776 31.1247 73.6577 30.5901C73.7378 30.0555 73.7756 29.5245 73.7711 28.9972ZM91.9732 28.798C91.9793 29.5207 91.8843 30.2084 91.688 30.8612C91.4981 31.5074 91.2265 32.1088 90.8732 32.6653C90.5263 33.2218 90.1107 33.7267 89.6262 34.1802C89.1417 34.6272 88.6046 35.0128 88.0149 35.337C87.4316 35.6547 86.8087 35.901 86.1461 36.0761C85.49 36.2512 84.8137 36.3418 84.1171 36.3479C83.7655 36.351 83.3554 36.3514 82.8866 36.349C82.4243 36.3465 81.9489 36.3344 81.4605 36.3127C80.9785 36.2909 80.5094 36.2527 80.0532 36.1981C79.6035 36.1435 79.2187 36.0687 78.8989 35.9739L78.8981 35.8762C78.8911 35.0624 78.8908 34.2551 78.897 33.4543C78.9098 32.6533 78.9224 31.8459 78.9351 31.032C78.9549 29.5408 78.9749 28.0595 78.995 26.5879C79.0215 25.1097 79.0479 23.6251 79.0744 22.1339C79.9715 21.9828 80.8788 21.8739 81.7963 21.8072C82.7202 21.734 83.6411 21.6933 84.559 21.6853C85.2165 21.6795 85.8553 21.7585 86.4752 21.9223C87.0951 22.0861 87.6765 22.3219 88.2195 22.6297C88.769 22.9373 89.2702 23.3073 89.7231 23.7395C90.1825 24.1652 90.5772 24.6435 90.9072 25.1745C91.2373 25.7054 91.496 26.2761 91.6835 26.8865C91.871 27.4968 91.9676 28.134 91.9732 28.798ZM89.2761 28.5972C89.2678 27.6206 89.1498 26.7623 88.9222 26.022C88.6945 25.2818 88.3442 24.6631 87.8712 24.166C87.3982 23.6623 86.7993 23.2867 86.0745 23.0392C85.3561 22.7851 84.499 22.6624 83.5029 22.6711C83.223 22.6736 82.9398 22.6794 82.6534 22.6884C82.367 22.6909 82.0773 22.7032 81.7845 22.7253L81.227 35.2698C81.7161 35.3696 82.2114 35.4239 82.7128 35.4325C83.2141 35.4346 83.7057 35.4335 84.1874 35.4293C84.7668 35.4242 85.2966 35.3219 85.7767 35.1223C86.2568 34.9228 86.6842 34.6553 87.059 34.32C87.4402 33.9781 87.7689 33.5813 88.045 33.1296C88.3276 32.6779 88.5612 32.2006 88.7457 31.6976C88.9303 31.1947 89.0659 30.6792 89.1526 30.151C89.2392 29.6164 89.2803 29.0984 89.2761 28.5972ZM102.843 31.1635C102.543 31.127 102.221 31.0973 101.876 31.0743C101.537 31.0512 101.192 31.0348 100.84 31.0248C100.488 31.0084 100.14 30.9984 99.7949 30.995C99.4498 30.9915 99.1242 30.9911 98.8183 30.9938C98.5253 30.9964 98.2357 31.0054 97.9493 31.021C97.6629 31.03 97.3733 31.0423 97.0805 31.0579C97.084 31.4745 97.0873 31.8586 97.0902 32.2102C97.0932 32.5617 97.0961 32.897 97.0988 33.216C97.1014 33.5285 97.104 33.8345 97.1066 34.134C97.1156 34.4334 97.1247 34.7393 97.1339 35.0517C97.4918 35.029 97.8984 34.9929 98.3537 34.9433C98.8156 34.8937 99.2969 34.8374 99.7977 34.7744C100.298 34.7049 100.806 34.6255 101.319 34.5364C101.839 34.4406 102.343 34.3353 102.83 34.2203C103.317 34.0989 103.772 33.9646 104.194 33.8177C104.622 33.6707 104.992 33.5112 105.303 33.3392L105.363 35.7606L94.3867 35.8572L94.619 21.8116L105.545 21.5397L105.382 24.2366C105.107 24.0567 104.754 23.897 104.323 23.7576C103.899 23.6181 103.432 23.4952 102.924 23.389C102.422 23.2828 101.893 23.193 101.339 23.1197C100.785 23.04 100.241 22.9764 99.7068 22.929C99.1791 22.8816 98.6807 22.8436 98.2117 22.8152C97.7492 22.7867 97.3486 22.7675 97.01 22.7574L97.0723 30.0911L97.1894 30.0901C97.6321 30.0862 98.0943 30.0756 98.5759 30.0584C99.0576 30.0411 99.5424 30.0173 100.03 29.987C100.525 29.9566 101.01 29.923 101.485 29.8863C101.966 29.843 102.428 29.7966 102.87 29.7472L102.843 31.1635ZM110.86 21.8348L110.356 30.3356C111.011 29.9718 111.642 29.5495 112.25 29.0689C112.858 28.5883 113.429 28.0787 113.965 27.5401C114.508 27.0015 115.008 26.4534 115.465 25.896C115.922 25.332 116.325 24.7881 116.672 24.2642C117.026 23.7403 117.318 23.2494 117.548 22.7916C117.779 22.3338 117.935 21.9386 118.017 21.6058L120.845 22.3036C120.641 22.7937 120.339 23.327 119.94 23.9034C119.542 24.4734 119.071 25.0569 118.529 25.6542C117.994 26.2514 117.4 26.8425 116.748 27.4277C116.102 28.0129 115.426 28.5625 114.721 29.0765L120.799 35.3611L117.681 36.1894L113.565 29.8679C113.015 30.2178 112.464 30.5352 111.913 30.82C111.368 31.0982 110.827 31.3309 110.288 31.5179L110.041 35.8367L108.04 35.8933L107.92 21.7337L110.86 21.8348Z" fill="#333333"/>
<path d="M61.8095 50.158C61.8127 50.5369 61.7433 50.8715 61.6012 51.1619C61.463 51.4522 61.2738 51.7058 61.0334 51.9228C60.7969 52.1358 60.5231 52.3159 60.2118 52.4632C59.9005 52.6066 59.5753 52.7227 59.2362 52.8116C58.8971 52.9006 58.5559 52.9641 58.2124 53.0023C57.8729 53.0404 57.5527 53.0608 57.252 53.0635C57.0215 53.0655 56.793 53.0636 56.5663 53.0578C56.3397 53.052 56.111 53.0345 55.8803 53.0052L55.8792 55.6303L54.3676 55.6554C54.3638 54.2803 54.3424 52.9133 54.3035 51.5542C54.2646 50.1912 54.2276 48.8223 54.1924 47.4476C54.4693 47.3905 54.7619 47.343 55.0702 47.3051C55.3785 47.2672 55.6907 47.2371 56.0069 47.2148C56.3231 47.1886 56.6374 47.1702 56.9499 47.1597C57.2623 47.1491 57.5611 47.1426 57.8462 47.1401C58.1587 47.1373 58.4734 47.1599 58.7902 47.2079C59.107 47.2559 59.4104 47.3314 59.7003 47.4343C59.9942 47.5372 60.2688 47.6695 60.5241 47.8314C60.7794 47.9932 61.0017 48.1866 61.1911 48.4115C61.3805 48.6364 61.5292 48.8948 61.6372 49.1869C61.749 49.475 61.8064 49.7987 61.8095 50.158ZM56.9548 47.7397C56.7556 47.7415 56.5545 47.7471 56.3514 47.7567C56.1523 47.7663 55.9532 47.7837 55.7542 47.8089L55.8871 52.4251C56.0709 52.4508 56.2566 52.4648 56.4441 52.467C56.6317 52.4693 56.8231 52.4696 57.0184 52.4679C57.2801 52.4656 57.5397 52.4476 57.7972 52.4141C58.0587 52.3806 58.3063 52.3276 58.5401 52.2552C58.7738 52.179 58.9898 52.0814 59.188 51.9624C59.3862 51.8396 59.5568 51.6896 59.6998 51.5126C59.8467 51.3316 59.9602 51.1236 60.0402 50.8885C60.1202 50.6495 60.1589 50.3737 60.1563 50.0613C60.1538 49.7722 60.1067 49.5148 60.0149 49.289C59.9231 49.0594 59.7984 48.8593 59.6407 48.6888C59.4869 48.5143 59.3059 48.3675 59.0979 48.2482C58.8898 48.1251 58.6682 48.0254 58.4332 47.9494C58.1982 47.8733 57.9535 47.8188 57.6994 47.7859C57.4491 47.7529 57.2009 47.7376 56.9548 47.7397ZM67.0074 46.7606C67.5386 46.756 68.0062 46.8456 68.4101 47.0296C68.814 47.2096 69.1638 47.4565 69.4594 47.7703C69.755 48.0803 70.0022 48.4414 70.2011 48.8537C70.4038 49.2621 70.5656 49.6923 70.6866 50.1444C70.8076 50.5926 70.8935 51.0489 70.9444 51.5133C70.9991 51.9738 71.0282 52.411 71.0317 52.8251C71.0348 53.1883 71.0143 53.5362 70.9702 53.8686C70.9262 54.2011 70.8779 54.4984 70.8255 54.7606C70.7616 55.0658 70.6899 55.3536 70.6101 55.6238L68.8321 55.323C68.9431 55.0525 69.046 54.745 69.1407 54.4004C69.2393 54.0557 69.3262 53.7034 69.4013 53.3433C68.9283 53.3045 68.4554 53.2813 67.9826 53.2738C67.5138 53.2662 67.047 53.2644 66.5822 53.2685C66.2189 53.2717 65.8556 53.2769 65.4924 53.284C65.1292 53.2911 64.7641 53.308 64.3971 53.3346C64.478 53.666 64.5727 53.9972 64.6809 54.3283C64.7892 54.6594 64.9132 54.9981 65.0529 55.3446L63.2043 55.7007C63.1168 55.5218 63.0369 55.3135 62.9646 55.0758C62.9042 54.8732 62.8475 54.6276 62.7942 54.339C62.7449 54.0465 62.7186 53.7166 62.7155 53.3494C62.7114 52.869 62.7268 52.3747 62.7615 51.8665C62.8002 51.3545 62.8721 50.8558 62.9773 50.3704C63.0865 49.8851 63.2389 49.4247 63.4344 48.9894C63.6338 48.554 63.8923 48.1728 64.2099 47.8458C64.5313 47.5149 64.9197 47.2536 65.3751 47.0621C65.8344 46.8667 66.3785 46.7662 67.0074 46.7606ZM64.1249 50.9522C64.1277 51.2764 64.142 51.5907 64.1681 51.8952C64.1941 52.1957 64.2337 52.4923 64.287 52.7848C64.6778 52.8048 65.0665 52.815 65.4533 52.8155C65.8439 52.816 66.2385 52.8145 66.6369 52.811C67.1095 52.8068 67.5841 52.8007 68.0606 52.7926C68.541 52.7806 69.0232 52.7548 69.5073 52.7154C69.5739 52.2812 69.6056 51.8727 69.6023 51.4899C69.6 51.2126 69.576 50.9179 69.5304 50.6058C69.4886 50.2936 69.4216 49.9856 69.3292 49.6817C69.2367 49.3739 69.117 49.0801 68.9701 48.8001C68.8271 48.5201 68.6512 48.2755 68.4424 48.0664C68.2335 47.8534 67.9918 47.6856 67.7174 47.563C67.4467 47.4365 67.1396 47.3747 66.7958 47.3777C66.4794 47.3805 66.1947 47.4338 65.9417 47.5376C65.6886 47.6414 65.4613 47.7821 65.2597 47.9596C65.062 48.1372 64.8899 48.3438 64.7435 48.5794C64.6009 48.8112 64.4839 49.0603 64.3924 49.3267C64.3008 49.5892 64.2328 49.8594 64.1883 50.1371C64.1438 50.4149 64.1227 50.6865 64.1249 50.9522ZM76.0083 55.8049C75.5513 55.8089 75.1231 55.756 74.7237 55.6462C74.3244 55.5365 73.9596 55.3697 73.6296 55.1461C73.2996 54.9224 73.0062 54.6418 72.7494 54.3042C72.4965 53.9665 72.2881 53.5738 72.1241 53.126L74.1504 52.9969C74.1878 53.7153 74.3975 54.2623 74.7796 54.6379C75.1617 55.0095 75.6984 55.1923 76.3898 55.1862C76.6593 55.1839 76.9286 55.1542 77.1977 55.0971C77.4667 55.04 77.7062 54.9461 77.916 54.8154C78.1297 54.6807 78.3021 54.5053 78.4331 54.2893C78.5679 54.0733 78.634 53.8051 78.6313 53.4848C78.6294 53.2622 78.5848 53.0731 78.4976 52.9176C78.4103 52.7582 78.2939 52.6264 78.1485 52.5222C78.007 52.418 77.8422 52.3355 77.6542 52.2746C77.4701 52.2098 77.2782 52.1607 77.0787 52.1273C76.8831 52.09 76.6875 52.0624 76.492 52.0446C76.2966 52.0268 76.1167 52.0108 75.9526 51.9966C75.6868 51.9794 75.4092 51.9506 75.1198 51.9102C74.8303 51.8697 74.5447 51.8117 74.2628 51.7361C73.9848 51.6604 73.7183 51.5631 73.4634 51.4443C73.2085 51.3254 72.9845 51.175 72.7916 50.9931C72.5986 50.8073 72.4444 50.588 72.3289 50.3351C72.2135 50.0822 72.1543 49.7838 72.1514 49.4401C72.1486 49.112 72.2008 48.8146 72.3079 48.5481C72.415 48.2815 72.5615 48.0458 72.7472 47.841C72.9369 47.6323 73.1541 47.4527 73.3989 47.3021C73.6476 47.1475 73.9103 47.0222 74.1868 46.926C74.4672 46.8259 74.7537 46.7511 75.0462 46.7016C75.3388 46.6522 75.6218 46.6263 75.8952 46.6239C76.1726 46.6214 76.4637 46.6364 76.7687 46.6689C77.0776 46.7013 77.3847 46.7572 77.6901 46.8366C77.9954 46.9159 78.2893 47.0208 78.5717 47.1511C78.8579 47.2775 79.1151 47.4354 79.3433 47.6248C79.5754 47.8142 79.7687 48.0371 79.9232 48.2936C80.0777 48.5461 80.1798 48.8363 80.2294 49.164L78.2759 49.5796C78.2981 49.4349 78.3085 49.2863 78.3072 49.134C78.3042 48.7785 78.2294 48.4784 78.0828 48.2336C77.9362 47.9888 77.7431 47.7932 77.5036 47.6469C77.264 47.4966 76.9936 47.3896 76.6922 47.3259C76.3909 47.2621 76.084 47.2316 75.7715 47.2343C75.4942 47.2368 75.2191 47.2763 74.9463 47.3529C74.6774 47.4256 74.4342 47.5352 74.2166 47.6816C74.003 47.828 73.8308 48.0112 73.6998 48.2311C73.5689 48.451 73.5046 48.7094 73.5072 49.0063C73.5089 49.2094 73.5651 49.3847 73.6757 49.5322C73.7863 49.6796 73.93 49.8073 74.1067 49.9151C74.2873 50.019 74.4892 50.1051 74.7124 50.1735C74.9357 50.2418 75.1588 50.2984 75.3819 50.3434C75.6088 50.3843 75.8239 50.4176 76.0273 50.4432C76.2306 50.4648 76.4026 50.4809 76.5433 50.4913C76.7935 50.5165 77.0556 50.5533 77.3294 50.6016C77.6033 50.6461 77.8733 50.7101 78.1397 50.7937C78.406 50.8773 78.6608 50.9825 78.9041 51.1093C79.1474 51.236 79.3596 51.3904 79.5409 51.5724C79.726 51.7544 79.8724 51.968 79.9799 52.2131C80.0914 52.4583 80.1485 52.739 80.1512 53.0554C80.154 53.3913 80.0902 53.6927 79.9596 53.9595C79.829 54.2224 79.6533 54.4563 79.4323 54.6614C79.2153 54.8625 78.9648 55.0366 78.6809 55.1837C78.3969 55.3268 78.101 55.4427 77.7932 55.5313C77.4854 55.6239 77.1773 55.6911 76.8691 55.7328C76.5609 55.7785 76.2739 55.8025 76.0083 55.8049ZM83.2977 46.8341L83.0709 55.3208L81.8875 55.3547L81.576 46.9548L83.2977 46.8341ZM90.2132 52.4981C90.0333 52.4763 89.8398 52.4585 89.6326 52.4446C89.4294 52.4308 89.2223 52.4209 89.0113 52.415C88.8002 52.4051 88.5912 52.3991 88.3841 52.397C88.1771 52.395 87.9818 52.3947 87.7982 52.3963C87.6224 52.3979 87.4486 52.4033 87.2768 52.4126C87.105 52.4181 86.9312 52.4254 86.7555 52.4348C86.7576 52.6848 86.7596 52.9153 86.7614 53.1262C86.7632 53.3371 86.7649 53.5383 86.7665 53.7297C86.7681 53.9172 86.7696 54.1008 86.7712 54.2804C86.7766 54.4601 86.7821 54.6436 86.7876 54.8311C87.0023 54.8175 87.2463 54.7958 87.5195 54.7661C87.7966 54.7363 88.0853 54.7025 88.3858 54.6647C88.6863 54.623 88.9906 54.5754 89.2987 54.5219C89.6107 54.4645 89.9129 54.4012 90.2053 54.3323C90.4977 54.2594 90.7705 54.1788 91.0236 54.0907C91.2807 54.0025 91.5025 53.9068 91.6892 53.8036L91.7249 55.2564L85.1393 55.3144L85.2787 46.887L91.8341 46.7239L91.7366 48.342C91.5716 48.2341 91.3598 48.1383 91.1013 48.0546C90.8466 47.9709 90.5667 47.8972 90.2615 47.8335C89.9601 47.7697 89.6433 47.7159 89.3109 47.6719C88.9784 47.624 88.6519 47.5859 88.3313 47.5575C88.0147 47.529 87.7156 47.5062 87.4342 47.4892C87.1567 47.4721 86.9164 47.4605 86.7132 47.4545L86.7506 51.8547L86.8209 51.8541C87.0865 51.8518 87.3638 51.8454 87.6528 51.8351C87.9418 51.8247 88.2327 51.8105 88.5255 51.7923C88.8222 51.774 89.1131 51.7539 89.3981 51.7318C89.6869 51.7059 89.964 51.678 90.2294 51.6484L90.2132 52.4981ZM95.0233 46.9009L94.7209 52.0014C95.1135 51.7831 95.4923 51.5298 95.857 51.2414C96.2218 50.953 96.5649 50.6473 96.8864 50.3241C97.2118 50.0009 97.5117 49.6721 97.7862 49.3377C98.0607 48.9993 98.3021 48.6729 98.5104 48.3586C98.7226 48.0442 98.8978 47.7497 99.0361 47.475C99.1744 47.2004 99.2681 46.9632 99.3172 46.7635L101.014 47.1822C100.892 47.4763 100.711 47.7962 100.471 48.1421C100.232 48.4841 99.95 48.8342 99.6249 49.1926C99.3037 49.5509 98.9474 49.9056 98.5558 50.2567C98.1681 50.6078 97.7627 50.9375 97.3395 51.246L100.987 55.0168L99.1161 55.5137L96.6463 51.7208C96.316 51.9308 95.9856 52.1212 95.655 52.2921C95.3283 52.459 95.0033 52.5986 94.68 52.7108L94.5321 55.3021L93.3311 55.3361L93.259 46.8403L95.0233 46.9009ZM106.1 46.4168C106.631 46.4121 107.098 46.5017 107.502 46.6857C107.906 46.8657 108.256 47.1127 108.552 47.4265C108.847 47.7364 109.094 48.0975 109.293 48.5098C109.496 48.9182 109.658 49.3485 109.779 49.8005C109.9 50.2487 109.986 50.705 110.037 51.1694C110.091 51.6299 110.12 52.0672 110.124 52.4812C110.127 52.8445 110.107 53.1923 110.062 53.5248C110.018 53.8572 109.97 54.1545 109.918 54.4167C109.854 54.7219 109.782 55.0097 109.702 55.2799L107.924 54.9792C108.035 54.7086 108.138 54.4011 108.233 54.0565C108.332 53.7119 108.418 53.3595 108.493 52.9995C108.02 52.9607 107.548 52.9375 107.075 52.9299C106.606 52.9223 106.139 52.9206 105.674 52.9247C105.311 52.9279 104.948 52.933 104.585 52.9401C104.221 52.9472 103.856 52.9641 103.489 52.9908C103.57 53.3221 103.665 53.6533 103.773 53.9844C103.881 54.3155 104.005 54.6542 104.145 55.0007L102.296 55.3568C102.209 55.1779 102.129 54.9696 102.057 54.7319C101.996 54.5293 101.94 54.2837 101.886 53.9951C101.837 53.7026 101.811 53.3727 101.808 53.0055C101.804 52.5251 101.819 52.0308 101.854 51.5227C101.892 51.0106 101.964 50.5119 102.07 50.0266C102.179 49.5412 102.331 49.0809 102.527 48.6455C102.726 48.2102 102.985 47.829 103.302 47.502C103.624 47.171 104.012 46.9098 104.467 46.7182C104.927 46.5228 105.471 46.4223 106.1 46.4168ZM103.217 50.6083C103.22 50.9325 103.234 51.2468 103.26 51.5513C103.286 51.8519 103.326 52.1484 103.379 52.4409C103.77 52.4609 104.159 52.4712 104.546 52.4717C104.936 52.4721 105.331 52.4706 105.729 52.4671C106.202 52.463 106.676 52.4568 107.153 52.4487C107.633 52.4367 108.115 52.411 108.599 52.3716C108.666 51.9374 108.698 51.5289 108.695 51.1461C108.692 50.8687 108.668 50.574 108.623 50.2619C108.581 49.9498 108.514 49.6417 108.421 49.3379C108.329 49.0301 108.209 48.7362 108.062 48.4562C107.919 48.1762 107.743 47.9317 107.535 47.7225C107.326 47.5095 107.084 47.3417 106.81 47.2191C106.539 47.0926 106.232 47.0309 105.888 47.0339C105.572 47.0367 105.287 47.0899 105.034 47.1937C104.781 47.2975 104.554 47.4382 104.352 47.6158C104.154 47.7933 103.982 47.9999 103.836 48.2356C103.693 48.4673 103.576 48.7164 103.485 48.9828C103.393 49.2454 103.325 49.5155 103.281 49.7932C103.236 50.071 103.215 50.3427 103.217 50.6083Z" fill="#333333"/>
</svg>
