<svg width="111" height="93" viewBox="0 0 111 93" fill="none" xmlns="http://www.w3.org/2000/svg">
<path d="M97.2382 44.0195L77.0624 85.8958L30.1346 89.9321L16.7585 71.012L3.38252 52.092L23.5583 10.2157L70.4861 6.17944L97.2382 44.0195Z" fill="#828282"/>
<path d="M104.93 40.0593L85.5107 80.365L40.2916 84.2543L27.4099 66.0334L14.5429 47.8335L33.962 7.5277L79.1811 3.63841L104.93 40.0593Z" fill="white" stroke="#333333" stroke-width="3"/>
<path d="M37.244 35.2768C37.4368 34.9783 37.6609 34.695 37.9165 34.4272C38.172 34.1515 38.4591 33.9146 38.7778 33.7164C39.1042 33.5105 39.4583 33.3472 39.8401 33.2266C40.2297 33.106 40.6472 33.0438 41.0925 33.0399C41.6706 33.0348 42.156 33.1555 42.5487 33.4021C42.9413 33.6409 43.2604 33.9584 43.5059 34.3547C43.9942 33.8895 44.5497 33.5135 45.1723 33.2268C45.7949 32.94 46.4343 32.7938 47.0906 32.788C47.5671 32.7839 47.9897 32.8661 48.3583 33.0347C48.7347 33.1955 49.0608 33.4192 49.3366 33.7059C49.6202 33.9846 49.8574 34.3107 50.048 34.684C50.2387 35.0574 50.3904 35.4506 50.5033 35.8637C50.6239 36.2767 50.7095 36.6979 50.76 37.1271C50.8182 37.5485 50.849 37.9545 50.8523 38.3451C50.856 38.7826 50.829 39.2907 50.7713 39.8693C50.7215 40.4401 50.6443 41.0228 50.5399 41.6175C50.4356 42.2122 50.3076 42.7836 50.1559 43.3319C50.012 43.8722 49.8479 44.3268 49.6635 44.6956L46.4619 44.4307C46.754 43.8578 47.0144 43.2383 47.2432 42.5722C47.4415 42.0002 47.6196 41.3462 47.7775 40.6104C47.9353 39.8668 48.0107 39.081 48.0037 38.2529C47.9994 37.7373 47.9641 37.2532 47.8978 36.8006C47.8315 36.3481 47.711 35.9585 47.5364 35.6319C47.3695 35.2974 47.1368 35.0338 46.8383 34.8411C46.5476 34.6483 46.1718 34.554 45.7109 34.558C45.3827 34.5609 45.0709 34.6339 44.7752 34.7772C44.4872 34.9125 44.2075 35.0908 43.9359 35.3119C44.064 35.6858 44.1533 36.0756 44.2035 36.4815C44.2616 36.8794 44.2922 37.2737 44.2955 37.6643C44.2989 38.0627 44.2835 38.5512 44.2493 39.1296C44.2151 39.7081 44.1654 40.3023 44.1002 40.9122C44.0428 41.5143 43.9734 42.0892 43.892 42.6368C43.8185 43.1843 43.7402 43.6225 43.657 43.9514L40.4559 43.7451C40.6621 43.1729 40.8443 42.5502 41.0027 41.8769C41.1385 41.2976 41.2617 40.6246 41.3725 39.858C41.491 39.0913 41.5466 38.2705 41.5393 37.3955C41.537 37.1221 41.4993 36.8294 41.4264 36.5175C41.3612 36.1978 41.2494 35.9058 41.0909 35.6415C40.9402 35.3694 40.7391 35.1446 40.4876 34.9671C40.2439 34.7896 39.9462 34.7023 39.5947 34.7054C39.3681 34.7074 39.15 34.7757 38.9401 34.9104C38.7303 35.0372 38.5286 35.207 38.335 35.4196C38.1415 35.6323 37.9561 35.88 37.7788 36.1628C37.6092 36.4377 37.4515 36.7282 37.3056 37.0342L37.6589 44.2032L34.5327 44.5353L35.0482 33.3741L37.1589 33.5197L37.244 35.2768ZM57.0073 30.2752C57.0096 30.5564 56.9572 30.8225 56.8499 31.0735C56.7505 31.3244 56.6078 31.5444 56.4219 31.7335C56.2359 31.9226 56.0184 32.073 55.7694 32.1846C55.5203 32.2961 55.2512 32.3532 54.9622 32.3557C54.6731 32.3582 54.3993 32.306 54.1405 32.1988C53.8896 32.0917 53.6696 31.9452 53.4806 31.7593C53.2915 31.5735 53.1412 31.356 53.0297 31.107C52.9183 30.8579 52.8614 30.5928 52.859 30.3116C52.8566 30.0225 52.909 29.7525 53.0162 29.5016C53.1234 29.2428 53.27 29.0189 53.4559 28.8297C53.6418 28.6406 53.8593 28.4902 54.1084 28.3787C54.3653 28.267 54.6382 28.2099 54.9273 28.2074C55.2163 28.2049 55.4863 28.2572 55.7372 28.3644C55.9882 28.4716 56.2081 28.6181 56.3972 28.8039C56.5863 28.9898 56.7327 29.2112 56.8364 29.4681C56.9479 29.7171 57.0048 29.9861 57.0073 30.2752ZM56.6361 33.5247L55.8404 44.8055L53.5768 44.591L53.3418 33.3778L56.6361 33.5247ZM71.2215 38.5063C71.2295 39.4516 71.0491 40.2931 70.6803 41.0307C70.3192 41.7604 69.8322 42.3819 69.2193 42.8951C68.6142 43.4005 67.9104 43.7856 67.1079 44.0504C66.3054 44.3231 65.4707 44.4632 64.6035 44.4708C63.7442 44.4784 62.95 44.3369 62.2209 44.0464C61.4997 43.7558 60.8752 43.3511 60.3474 42.8323C59.8195 42.3057 59.4041 41.6843 59.1012 40.9682C58.806 40.2442 58.6548 39.4525 58.6476 38.5932C58.6405 37.7494 58.8057 36.9589 59.1433 36.2215C59.4887 35.4841 59.9481 34.8394 60.5216 34.2875C61.1029 33.7277 61.7711 33.2882 62.5262 32.9691C63.2813 32.6421 64.0729 32.475 64.901 32.4678C65.7994 32.4599 66.6326 32.601 67.4007 32.8912C68.1688 33.1813 68.8325 33.5935 69.3917 34.1277C69.9587 34.6618 70.4016 35.3024 70.7204 36.0497C71.0469 36.789 71.214 37.6079 71.2215 38.5063ZM68.2675 38.415C68.2646 38.0635 68.2381 37.7004 68.1881 37.3258C68.138 36.9435 68.0567 36.5731 67.9443 36.2147C67.8397 35.8484 67.7001 35.5058 67.5255 35.187C67.3587 34.8604 67.1493 34.577 66.8972 34.337C66.6452 34.0892 66.3506 33.8965 66.0134 33.7588C65.6763 33.6134 65.2929 33.5425 64.8632 33.5463C64.207 33.552 63.6654 33.7169 63.2384 34.041C62.8113 34.3573 62.4749 34.7626 62.229 35.2569C61.9909 35.7434 61.8236 36.2801 61.7269 36.8669C61.6381 37.4536 61.5959 38.0126 61.6004 38.5438C61.6034 38.8954 61.626 39.2624 61.6683 39.6448C61.7183 40.0194 61.7956 40.3898 61.9003 40.7561C62.0049 41.1224 62.1407 41.4728 62.3076 41.8073C62.4744 42.1339 62.68 42.4251 62.9243 42.6808C63.1764 42.9286 63.4671 43.1253 63.7965 43.2708C64.1337 43.4163 64.5171 43.4872 64.9468 43.4834C65.3843 43.4796 65.7703 43.402 66.105 43.2506C66.4396 43.0914 66.727 42.8857 66.967 42.6336C67.2149 42.3736 67.4233 42.0749 67.5923 41.7375C67.7613 41.3922 67.895 41.0356 67.9935 40.6675C68.0919 40.2916 68.1629 39.9121 68.2066 39.5289C68.2502 39.1379 68.2705 38.7666 68.2675 38.415ZM82.3252 36.3932C82.3227 36.0964 82.2305 35.812 82.0485 35.5402C81.8743 35.2604 81.6496 35.0163 81.3744 34.8078C81.0992 34.5992 80.7931 34.4339 80.4561 34.3119C80.1191 34.1898 79.7944 34.1302 79.4819 34.1329C78.8413 34.1385 78.2917 34.284 77.8332 34.5693C77.3746 34.8546 76.9988 35.2251 76.7058 35.6808C76.4205 36.1286 76.2099 36.6344 76.074 37.1981C75.938 37.754 75.8724 38.3132 75.8771 38.8757C75.8814 39.3834 75.9366 39.9064 76.0427 40.4446C76.1565 40.9748 76.3364 41.4616 76.5823 41.9047C76.8361 42.3478 77.1673 42.7121 77.5759 42.9976C77.9845 43.2753 78.4935 43.4115 79.1029 43.4061C79.5794 43.402 79.9926 43.2929 80.3424 43.0788C80.6999 42.8648 81.0023 42.5926 81.2496 42.2623C81.5046 41.9241 81.7123 41.5472 81.8729 41.1318C82.0334 40.7085 82.1549 40.2894 82.2373 39.8746C82.2559 39.2963 82.2745 38.7141 82.293 38.128C82.3192 37.534 82.33 36.9557 82.3252 36.3932ZM85.0149 27.3459L84.7008 44.3415L82.544 44.2901L82.4327 42.205C82.2796 42.5814 82.0754 42.9191 81.8201 43.2182C81.5726 43.5095 81.2817 43.7542 80.9474 43.9525C80.621 44.1585 80.259 44.314 79.8614 44.4191C79.4717 44.524 79.062 44.5784 78.6323 44.5822C77.7964 44.5895 77.0335 44.4556 76.3437 44.1804C75.6538 43.9052 75.0607 43.5197 74.5643 43.024C74.0758 42.5283 73.6919 41.934 73.4126 41.2411C73.1411 40.5482 73.0019 39.7915 72.995 38.9712C72.9875 38.0807 73.1252 37.263 73.408 36.5183C73.6986 35.7657 74.1033 35.1215 74.6223 34.5857C75.149 34.042 75.7822 33.6263 76.522 33.3385C77.2617 33.043 78.077 32.903 78.9678 32.9186C79.2335 32.9241 79.5032 32.9491 79.777 32.9936C80.0586 33.0302 80.3325 33.0903 80.5989 33.1739C80.8652 33.2575 81.12 33.3646 81.3633 33.4953C81.6144 33.6259 81.8423 33.7841 82.047 33.9698L81.7441 27.2105L85.0149 27.3459ZM54.1353 60.8367C53.5182 60.8421 52.9043 60.7694 52.2936 60.6185C51.6907 60.4597 51.1416 60.2067 50.6465 59.8595C50.6569 60.1641 50.6791 60.4764 50.713 60.7964C50.7469 61.1164 50.8003 61.4285 50.8732 61.7325C50.9538 62.0287 51.0539 62.3091 51.1733 62.5737C51.3005 62.8382 51.4587 63.0712 51.6479 63.2727C51.8449 63.4663 52.0766 63.6205 52.3432 63.7353C52.6177 63.8501 52.9424 63.9059 53.3173 63.9026C53.6689 63.8995 53.9965 63.8341 54.3001 63.7065C54.6037 63.571 54.8678 63.3929 55.0925 63.1722C55.325 62.9514 55.5143 62.6919 55.6602 62.3937C55.8061 62.0955 55.905 61.7743 55.9568 61.4301L58.8449 62.0494C58.6224 62.5357 58.3056 62.9487 57.8944 63.2882C57.491 63.6277 57.0401 63.9012 56.5418 64.1087C56.0436 64.324 55.5215 64.4809 54.9754 64.5795C54.4372 64.678 53.9181 64.7294 53.4181 64.7338C52.5197 64.7417 51.7178 64.6159 51.0125 64.3564C50.3072 64.097 49.7102 63.7194 49.2216 63.2236C48.7409 62.7278 48.3686 62.1256 48.1048 61.417C47.8488 60.7004 47.717 59.8969 47.7096 59.0063C47.7023 58.1391 47.8438 57.3214 48.1342 56.5532C48.4246 55.7772 48.833 55.1017 49.3594 54.5268C49.8859 53.9518 50.5188 53.497 51.2582 53.1624C52.0053 52.8199 52.8281 52.6447 53.7265 52.6369C54.3827 52.6311 55.0357 52.7074 55.6855 52.8658C56.3353 53.0163 56.9194 53.2612 57.4379 53.6004C57.9563 53.9318 58.374 54.3618 58.6909 54.8903C59.0157 55.4187 59.1813 56.0579 59.1876 56.8079C59.1937 57.5422 59.0505 58.1646 58.7579 58.675C58.4731 59.1775 58.0937 59.591 57.6199 59.9155C57.146 60.2322 56.6049 60.4635 55.9968 60.6094C55.3886 60.7554 54.7681 60.8312 54.1353 60.8367ZM53.5697 53.5054C53.2104 53.5086 52.8907 53.5856 52.6107 53.7365C52.3385 53.8795 52.094 54.077 51.8774 54.3289C51.6686 54.5808 51.4913 54.8675 51.3455 55.1891C51.1998 55.5107 51.0776 55.8477 50.979 56.2001C50.8804 56.5526 50.8053 56.9087 50.7536 57.2686C50.702 57.6284 50.6696 57.9646 50.6566 58.2773C50.9578 58.7825 51.3558 59.197 51.8507 59.5208C52.3456 59.8367 52.9172 59.9919 53.5657 59.9862C53.9797 59.9826 54.35 59.8856 54.6765 59.6952C55.003 59.497 55.2782 59.2446 55.5022 58.9379C55.7262 58.6313 55.8952 58.2899 56.0093 57.9139C56.1311 57.5378 56.1904 57.1623 56.1873 56.7873C56.1841 56.4123 56.1262 56.03 56.0136 55.6403C55.9008 55.2429 55.7338 54.8889 55.5124 54.5783C55.2988 54.2598 55.0271 54.0005 54.6973 53.8003C54.3752 53.6 53.9994 53.5017 53.5697 53.5054ZM64.7668 47.1609L64.1145 58.7804C64.6743 58.4629 65.2024 58.0833 65.6987 57.6414C66.195 57.1996 66.6363 56.7152 67.0225 56.1884C67.4164 55.6536 67.7476 55.0882 68.016 54.4921C68.2922 53.8881 68.4863 53.2731 68.5982 52.6471L72.2604 53.3415C71.7049 54.1746 71.024 54.9618 70.2177 55.7033C69.4114 56.4448 68.5342 57.1087 67.5859 57.6952C68.1357 58.0341 68.6744 58.4552 69.2021 58.9584C69.7298 59.4616 70.2188 60.0081 70.6691 60.5979C71.1272 61.1877 71.5347 61.7974 71.8915 62.4271C72.2484 63.0568 72.5348 63.6676 72.7507 64.2595L69.1821 64.9354C69.1698 64.4042 69.0908 63.8424 68.9452 63.2499C68.7996 62.6574 68.6032 62.0692 68.3561 61.4855C68.1168 60.9016 67.8348 60.3415 67.5099 59.8053C67.185 59.2613 66.8372 58.7799 66.4665 58.3613C66.0698 58.5679 65.673 58.7628 65.2761 58.946C64.8869 59.1213 64.4937 59.2771 64.0964 59.4134L63.8337 64.408L61.8195 64.5898L61.0899 47.5096L64.7668 47.1609Z" fill="#333333"/>
</svg>
