<svg width="18" height="29" viewBox="0 0 18 29" fill="none" xmlns="http://www.w3.org/2000/svg">
<path d="M2.37891 0C1.89991 0 1.49994 0.399845 1.5 0.878845V2.62305C1.49994 3.10205 1.89991 3.5 2.37891 3.5H15.623C16.102 3.5 16.5001 3.10205 16.5 2.62305V0.878845C16.5001 0.399845 16.102 0 15.623 0H2.37891ZM2.5 1H15.5V2.5H2.5V1Z" fill="black"/>
<path fill-rule="evenodd" clip-rule="evenodd" d="M3 2.50012C2.8674 2.50014 2.74023 2.55284 2.64646 2.64661C2.5527 2.74037 2.50001 2.86752 2.5 3.00012V3.4552C2.41039 4.3408 1.57321 5.08212 0.882812 6.12512C0.553118 6.62302 0.5 7.18549 0.5 7.66809V24.6056C0.5 25.9521 1.13369 27.2214 2.21094 28.0294C2.21607 28.0335 2.22128 28.0375 2.22656 28.0414C2.82674 28.4571 3.45987 28.4796 3.92773 28.4946C3.93359 28.4947 3.93945 28.4947 3.94531 28.4946H14.0508C14.7722 28.4946 15.4755 28.2616 16.0527 27.8286C16.0573 27.8254 16.0619 27.822 16.0664 27.8186C17.1435 26.9535 17.481 25.6617 17.4961 24.6135C17.4961 24.6102 17.4961 24.6068 17.4961 24.6035V7.67383C17.5024 7.21783 17.4057 6.63464 17.1328 6.15234C16.5084 5.04904 15.6882 4.25523 15.5 3.41003V2.99805C15.5 2.86544 15.4473 2.73817 15.3535 2.64441C15.2598 2.55064 15.1326 2.49806 15 2.49805H3V2.50012ZM3.5 3.50012H14.5C14.5002 3.5356 14.5041 3.57094 14.5117 3.60559C14.7837 4.87799 15.7385 5.72406 16.2617 6.64856C16.3671 6.83466 16.499 7.45183 16.4961 7.66223C16.4961 7.66556 16.4961 7.66891 16.4961 7.67224V24.6019C16.484 25.4439 16.2121 26.4114 15.4453 27.0334C15.0424 27.3334 14.5533 27.4984 14.0508 27.4984H3.95313C3.50211 27.4844 3.15229 27.4604 2.80664 27.2249C1.98539 26.6009 1.5 25.6349 1.5 24.6056V7.66809C1.5 7.27089 1.56044 6.91396 1.7168 6.67786C2.29532 5.80386 3.36095 4.9429 3.49805 3.5509C3.49958 3.53395 3.50025 3.5169 3.50005 3.49988L3.5 3.50012Z" fill="black"/>
<path d="M14.9928 15.4942C14.8605 15.4963 14.7345 15.5506 14.6423 15.6454C14.55 15.7402 14.4991 15.8678 14.5006 16.0001L14.4986 22.7481C14.4985 23.4574 14.2699 24.1473 13.8443 24.7149C13.5988 25.0422 13.108 25.6973 13.108 25.6973C13.0646 25.7494 13.0323 25.8098 13.0129 25.8748C12.9936 25.9398 12.9877 26.008 12.9956 26.0754C13.0034 26.1427 13.0249 26.2078 13.0587 26.2665C13.0925 26.3253 13.1378 26.3766 13.1921 26.4173C13.2463 26.458 13.3082 26.4872 13.3741 26.5032C13.44 26.5193 13.5084 26.5217 13.5753 26.5104C13.6421 26.4992 13.706 26.4745 13.763 26.4378C13.82 26.4011 13.8689 26.3531 13.9068 26.2969C13.9068 26.2969 14.3977 25.6417 14.6431 25.3145C15.1984 24.574 15.4985 23.6735 15.4986 22.7481L15.5006 16.0001C15.5014 15.9333 15.4888 15.867 15.4635 15.8051C15.4382 15.7433 15.4008 15.6871 15.3535 15.64C15.3061 15.5928 15.2498 15.5556 15.1879 15.5306C15.1259 15.5056 15.0596 15.4932 14.9928 15.4942V15.4942Z" fill="black"/>
</svg>
