<svg xmlns:dc="http://purl.org/dc/elements/1.1/" xmlns:cc="http://creativecommons.org/ns#" xmlns:rdf="http://www.w3.org/1999/02/22-rdf-syntax-ns#" xmlns:svg="http://www.w3.org/2000/svg" xmlns="http://www.w3.org/2000/svg" xmlns:sodipodi="http://sodipodi.sourceforge.net/DTD/sodipodi-0.dtd" xmlns:inkscape="http://www.inkscape.org/namespaces/inkscape" viewBox="0 0 32 40" version="1.1" x="0px" y="0px"><g transform="translate(0,-1020.3622)"><path style="color:#000000;font-style:normal;font-variant:normal;font-weight:normal;font-stretch:normal;font-size:medium;line-height:normal;font-family:sans-serif;text-indent:0;text-align:start;text-decoration:none;text-decoration-line:none;text-decoration-style:solid;text-decoration-color:#000000;letter-spacing:normal;word-spacing:normal;text-transform:none;direction:ltr;block-progression:tb;writing-mode:lr-tb;baseline-shift:baseline;text-anchor:start;white-space:normal;clip-rule:nonzero;display:inline;overflow:visible;visibility:visible;opacity:1;isolation:auto;mix-blend-mode:normal;color-interpolation:sRGB;color-interpolation-filters:linearRGB;solid-color:#000000;solid-opacity:1;fill:#000000;fill-opacity:1;fill-rule:nonzero;stroke:none;stroke-width:1.00000012;stroke-linecap:round;stroke-linejoin:round;stroke-miterlimit:4;stroke-dasharray:none;stroke-dashoffset:0;stroke-opacity:1;color-rendering:auto;image-rendering:auto;shape-rendering:auto;text-rendering:auto;enable-background:accumulate" d="m 9.3789062,1022.3613 c -0.4789981,0 -0.8789661,0.3999 -0.8789062,0.8789 l 0,1.7442 c -5.99e-5,0.479 0.3999081,0.8769 0.8789062,0.8769 l 13.2441408,0 c 0.478998,0 0.877013,-0.3979 0.876953,-0.8769 l 0,-1.7442 c 6e-5,-0.479 -0.397955,-0.8789 -0.876953,-0.8789 l -13.2441408,0 z m 0.1210938,1 13,0 0,1.5 -13,0 0,-1.5 z"/><path style="color:#000000;font-style:normal;font-variant:normal;font-weight:normal;font-stretch:normal;font-size:medium;line-height:normal;font-family:sans-serif;text-indent:0;text-align:start;text-decoration:none;text-decoration-line:none;text-decoration-style:solid;text-decoration-color:#000000;letter-spacing:normal;word-spacing:normal;text-transform:none;direction:ltr;block-progression:tb;writing-mode:lr-tb;baseline-shift:baseline;text-anchor:start;white-space:normal;clip-rule:nonzero;display:inline;overflow:visible;visibility:visible;opacity:1;isolation:auto;mix-blend-mode:normal;color-interpolation:sRGB;color-interpolation-filters:linearRGB;solid-color:#000000;solid-opacity:1;fill:#000000;fill-opacity:1;fill-rule:evenodd;stroke:none;stroke-width:0.99999994px;stroke-linecap:round;stroke-linejoin:round;stroke-miterlimit:4;stroke-dasharray:none;stroke-dashoffset:0;stroke-opacity:1;color-rendering:auto;image-rendering:auto;shape-rendering:auto;text-rendering:auto;enable-background:accumulate" d="m 10,1024.8613 a 0.50004997,0.50004997 0 0 0 -0.5,0.5 l 0,0.4551 c -0.089608,0.8856 -0.9267876,1.6269 -1.6171875,2.6699 C 7.5531178,1028.9842 7.5,1029.5467 7.5,1030.0293 l 0,16.9375 c 0,1.3465 0.6336894,2.6158 1.7109375,3.4238 a 0.50004997,0.50004997 0 0 0 0.015625,0.012 c 0.6001789,0.4157 1.2333115,0.4382 1.7011715,0.4532 a 0.50004997,0.50004997 0 0 0 0.01758,0 l 10.105469,0 c 0.721384,0 1.424714,-0.233 2.001953,-0.666 a 0.50004997,0.50004997 0 0 0 0.01367,-0.01 c 1.077119,-0.8651 1.414598,-2.1569 1.429688,-3.2051 a 0.50004997,0.50004997 0 0 0 0,-0.01 l 0,-16.9297 c 0.0063,-0.456 -0.09035,-1.0392 -0.363282,-1.5215 -0.624435,-1.1033 -1.444617,-1.897 -1.632812,-2.7422 l 0,-0.4121 a 0.50004997,0.50004997 0 0 0 -0.5,-0.5 l -12,0 z m 0.5,1 11,0 a 0.50004997,0.50004997 0 0 0 0.01172,0.1055 c 0.272005,1.2724 1.226792,2.1185 1.75,3.043 0.105371,0.1861 0.23728,0.8032 0.234375,1.0136 a 0.50004997,0.50004997 0 0 0 0,0.01 l 0,16.9297 c -0.01212,0.842 -0.283945,1.8096 -1.050782,2.4316 -0.402896,0.3 -0.891976,0.4649 -1.394531,0.4649 l -10.097656,0 c -0.451016,-0.014 -0.800833,-0.038 -1.1464844,-0.2735 C 8.9853884,1048.9621 8.5,1047.9961 8.5,1046.9668 l 0,-16.9375 c 0,-0.3972 0.060444,-0.7541 0.2167969,-0.9902 0.5785232,-0.874 1.6441541,-1.735 1.7812501,-3.127 a 0.50004997,0.50004997 0 0 0 0.002,-0.051 z"/><path style="color:#000000;font-style:normal;font-variant:normal;font-weight:normal;font-stretch:normal;font-size:medium;line-height:normal;font-family:sans-serif;text-indent:0;text-align:start;text-decoration:none;text-decoration-line:none;text-decoration-style:solid;text-decoration-color:#000000;letter-spacing:normal;word-spacing:normal;text-transform:none;direction:ltr;block-progression:tb;writing-mode:lr-tb;baseline-shift:baseline;text-anchor:start;white-space:normal;clip-rule:nonzero;display:inline;overflow:visible;visibility:visible;opacity:1;isolation:auto;mix-blend-mode:normal;color-interpolation:sRGB;color-interpolation-filters:linearRGB;solid-color:#000000;solid-opacity:1;fill:#000000;fill-opacity:1;fill-rule:nonzero;stroke:none;stroke-width:1.00000012;stroke-linecap:round;stroke-linejoin:round;stroke-miterlimit:4;stroke-dasharray:none;stroke-dashoffset:0;stroke-opacity:1;color-rendering:auto;image-rendering:auto;shape-rendering:auto;text-rendering:auto;enable-background:accumulate" d="M 21.992188,1037.8555 A 0.50005006,0.50005006 0 0 0 21.5,1038.3613 l -0.002,6.7481 c -1.16e-4,0.7093 -0.228724,1.3992 -0.654297,1.9668 -0.245498,0.3273 -0.736328,0.9824 -0.736328,0.9824 a 0.50005006,0.50005006 0 1 0 0.798828,0.5996 c 0,0 0.49089,-0.6552 0.736328,-0.9824 0.555269,-0.7405 0.855318,-1.641 0.855469,-2.5664 l 0.002,-6.7481 a 0.50005006,0.50005006 0 0 0 -0.507812,-0.5058 z"/></g><text x="0" y="47" fill="#000000" font-size="5px" font-weight="bold" font-family="'Helvetica Neue', Helvetica, Arial-Unicode, Arial, Sans-serif">Created by P Thanga Vignesh</text><text x="0" y="52" fill="#000000" font-size="5px" font-weight="bold" font-family="'Helvetica Neue', Helvetica, Arial-Unicode, Arial, Sans-serif">from the Noun Project</text></svg>