<svg xmlns="http://www.w3.org/2000/svg" xmlns:xlink="http://www.w3.org/1999/xlink" version="1.1" x="0px" y="0px" viewBox="0 0 10 12.5" enable-background="new 0 0 10 10" xml:space="preserve"><g><path d="M1283.275,1106.166v5.104c1.41,0,2.552-1.143,2.552-2.552S1284.686,1106.166,1283.275,1106.166z"/><path d="M1283.709,1105.201v-0.546h0.459v-0.716h-1.784v0.716h0.458v0.546c-1.75,0.213-3.109,1.709-3.109,3.517   c0,1.954,1.59,3.544,3.543,3.544c1.955,0,3.545-1.59,3.545-3.544C1286.82,1106.91,1285.462,1105.414,1283.709,1105.201z    M1283.275,1111.686c-1.635,0-2.965-1.332-2.965-2.968s1.33-2.966,2.965-2.966c1.637,0,2.967,1.33,2.967,2.966   S1284.912,1111.686,1283.275,1111.686z"/><path d="M1281.541,1108.428h-0.723c-0.16,0-0.291,0.131-0.291,0.29c0,0.16,0.131,0.288,0.291,0.288h0.723   c0.158,0,0.289-0.128,0.289-0.288C1281.83,1108.559,1281.699,1108.428,1281.541,1108.428z"/></g><g><path d="M9.325,5.437c0.073-0.038,0.102-0.127,0.063-0.2c-0.038-0.072-0.127-0.101-0.2-0.063L7.569,6.018V5.727l1.756-0.915   c0.073-0.038,0.102-0.127,0.063-0.2C9.351,4.54,9.262,4.512,9.188,4.55L7.569,5.393V5.118l1.756-0.915   c0.051-0.025,0.081-0.077,0.08-0.133S9.372,3.963,9.321,3.938L6.601,2.625c-0.04-0.02-0.088-0.019-0.129,0L0.678,5.457   C0.627,5.481,0.595,5.533,0.595,5.59c0,0.057,0.033,0.107,0.083,0.133l2.896,1.406c0.021,0.01,0.043,0.016,0.065,0.016   c0.023,0,0.047-0.006,0.068-0.018l1.869-0.973V6.43l-1.939,1.01l-2.83-1.375C0.735,6.029,0.646,6.061,0.61,6.133   C0.575,6.207,0.605,6.295,0.679,6.33l2.896,1.408c0.021,0.01,0.043,0.014,0.065,0.014c0.023,0,0.047-0.006,0.068-0.016l1.869-0.975   v0.291l-1.939,1.01l-2.83-1.373C0.735,6.652,0.646,6.684,0.61,6.758C0.575,6.83,0.605,6.92,0.679,6.955l2.896,1.406   c0.021,0.01,0.043,0.016,0.065,0.016c0.023,0,0.047-0.006,0.068-0.018l1.869-0.973v0.271l-1.939,1.01l-2.83-1.373   C0.735,7.26,0.646,7.289,0.61,7.363S0.605,7.525,0.679,7.561l2.896,1.406C3.596,8.979,3.618,8.982,3.64,8.982   c0.023,0,0.047-0.006,0.068-0.018l3.781-1.967l1.836-0.957c0.073-0.037,0.102-0.127,0.063-0.199s-0.127-0.102-0.2-0.063   L7.569,6.623V6.35L9.325,5.437z M6.537,2.922l2.39,1.155l-1.518,0.79L4.991,3.678L6.537,2.922z M3.638,6.83L1.082,5.588   l1.833-0.895l2.482,1.221L3.638,6.83z M5.874,6l0.949-0.494c0.072-0.037,0.1-0.126,0.063-0.199   C6.848,5.234,6.759,5.206,6.687,5.244l-0.963,0.5L3.252,4.528l1.403-0.686L7.272,5.13v1.645L5.874,7.504V6z"/><path d="M3.242,2.999c1.195,0,2.097-0.426,2.097-0.99s-0.901-0.99-2.097-0.99c-1.195,0-2.096,0.426-2.096,0.99   S2.047,2.999,3.242,2.999z M3.242,1.314c1.061,0,1.8,0.366,1.8,0.694s-0.739,0.694-1.8,0.694c-1.061,0-1.8-0.366-1.8-0.694   S2.182,1.314,3.242,1.314z"/><path d="M5.303,2.87c0.034-0.075,0-0.163-0.074-0.196c-0.075-0.033-0.162,0-0.196,0.075c-0.102,0.227-0.815,0.472-1.79,0.472   c-0.974,0-1.688-0.245-1.791-0.472C1.418,2.674,1.33,2.641,1.256,2.675C1.181,2.708,1.148,2.796,1.182,2.87   c0.201,0.444,1.209,0.647,2.061,0.647C4.095,3.517,5.104,3.314,5.303,2.87z"/><path d="M3.391,3.929c0-0.082-0.066-0.148-0.148-0.148c-0.974,0-1.688-0.245-1.791-0.473C1.418,3.234,1.33,3.2,1.256,3.234   C1.181,3.268,1.148,3.355,1.182,3.43c0.201,0.444,1.209,0.647,2.061,0.647C3.324,4.077,3.391,4.011,3.391,3.929z"/><path d="M2.322,4.496c0.072,0,0.135-0.052,0.146-0.126C2.48,4.289,2.425,4.213,2.344,4.201c-0.622-0.093-0.859-0.25-0.897-0.32   c-0.04-0.072-0.129-0.098-0.201-0.059C1.174,3.861,1.147,3.952,1.187,4.023C1.337,4.297,1.875,4.43,2.3,4.494   C2.307,4.495,2.314,4.496,2.322,4.496z"/><path d="M1.438,4.416C1.392,4.348,1.3,4.332,1.232,4.378C1.165,4.424,1.148,4.517,1.195,4.584C1.276,4.702,1.465,4.796,1.772,4.87   c0.012,0.003,0.023,0.004,0.035,0.004c0.066,0,0.127-0.045,0.144-0.113c0.02-0.079-0.029-0.159-0.109-0.179   C1.5,4.499,1.441,4.419,1.438,4.416z"/><ellipse transform="matrix(-0.3839 -0.9234 0.9234 -0.3839 2.8008 11.4904)" cx="5.234" cy="4.811" rx="0.256" ry="0.666"/></g><text x="0" y="25" fill="#000000" font-size="5px" font-weight="bold" font-family="'Helvetica Neue', Helvetica, Arial-Unicode, Arial, Sans-serif">Created by Verry</text><text x="0" y="30" fill="#000000" font-size="5px" font-weight="bold" font-family="'Helvetica Neue', Helvetica, Arial-Unicode, Arial, Sans-serif">from the Noun Project</text></svg>