<svg width="25" height="32" viewBox="0 0 25 32" fill="none" xmlns="http://www.w3.org/2000/svg">
<g clip-path="url(#clip0)">
<path d="M21.1355 12L22.2899 14.1616C22.6821 15.361 23 17.3464 23 18.6055V19.7278C23 20.9827 21.9005 22 20.5293 22H4.47072C3.10618 22 2 20.9869 2 19.7278V18.6055C2 17.3506 2.31596 15.3671 2.71015 14.1616L3.86445 12H2.0941C1.48984 12 1 11.4337 1 10.7537V7C1 4.23858 2.96097 2 5.38026 2H19.6197C22.0389 2 24 4.2442 24 7V10.7537C24 11.442 23.5152 12 22.9059 12H21.1355ZM20.0675 10H22V7C22 5.29199 20.869 4 19.6197 4H5.38026C4.1288 4 3 5.28854 3 7V10H4.93248L5.90878 8.17177C6.30098 6.97234 7.73091 6 9.07965 6H15.9203C17.2794 6 18.697 6.96627 19.0912 8.17177L20.0675 10ZM4 18.6055V19.7278C4 19.8411 4.17298 20 4.47072 20H20.5293C20.8285 20 21 19.842 21 19.7278V18.6055C21 17.6117 20.7437 15.9594 20.4376 14.9388L17.2446 8.9596L17.1903 8.79336C17.0728 8.43414 16.438 8 15.9203 8H9.07965C8.57085 8 7.92478 8.44151 7.80973 8.79336L7.75537 8.9596L4.56238 14.9388C4.25561 15.9612 4 17.6119 4 18.6055ZM12.5 18C10.567 18 9 16.433 9 14.5C9 12.567 10.567 11 12.5 11C14.433 11 16 12.567 16 14.5C16 16.433 14.433 18 12.5 18ZM12.5 16C13.3284 16 14 15.3284 14 14.5C14 13.6716 13.3284 13 12.5 13C11.6716 13 11 13.6716 11 14.5C11 15.3284 11.6716 16 12.5 16Z" fill="black"/>
</g>
<defs>
<clipPath id="clip0">
<rect width="25" height="31.25" fill="white"/>
</clipPath>
</defs>
</svg>
